<svg width="8" height="8" viewBox="0 0 8 8" fill="none" xmlns="http://www.w3.org/2000/svg">
<path d="M4 0C1.79086 0 0 1.79086 0 4C0 6.20914 1.79086 8 4 8C6.20914 8 8 6.20914 8 4C8 1.79086 6.20914 0 4 0ZM2.42716 1.6157C2.89386 1.30755 3.44075 1.14314 4 1.14286C4.56005 1.14227 5.10777 1.30729 5.57429 1.61714L1.61714 5.57429C0.747696 4.25746 1.11034 2.48516 2.42716 1.6157ZM5.57284 6.3843C5.10614 6.69245 4.55927 6.85686 4 6.85714C3.43995 6.85773 2.89223 6.69271 2.42571 6.38286L6.38286 2.42571C7.2523 3.74252 6.88966 5.51484 5.57284 6.3843Z" fill="#9E0505"/>
</svg>
