<svg width="80" height="80" viewBox="0 0 80 80" fill="none" xmlns="http://www.w3.org/2000/svg">
<rect width="80" height="80" rx="5" fill="#7BAB14"/>
<path d="M0.5 69.5V45L20.5 25L21.5 24.5H25.5L27 23H31.5L30 24.5H39.5L43.5 21.5H49.5L52.5 23L54 25L55.5 24.5H57L59 25V51L46 60H51L31.5 79.5H26H22H15.5H5.5L3 79L1.5 78L0.5 76.5V69.5Z" fill="#3D3D3D" fill-opacity="0.3"/>
<path d="M50.3449 36.5523H44.8276C44.8276 38.0737 46.0649 39.3109 47.5863 39.3109C49.1076 39.3109 50.3449 38.0737 50.3449 36.5523Z" fill="white"/>
<path d="M32.4136 39.3109H35.1722V46.2074H32.4136V39.3109Z" fill="white"/>
<path d="M32.7476 27.5867H28.0407L26.5635 31.0349H31.2697L32.7476 27.5867Z" fill="white"/>
<path d="M25.5171 35.1727H28.2757V46.207H25.5171V35.1727Z" fill="white"/>
<path d="M43.2212 32.2294C44.1523 32.9901 44.715 34.0494 44.8081 35.1728H50.3633C50.4537 34.0439 51.0068 32.9929 51.9212 32.2529C53.5488 30.9357 54.4826 28.984 54.4826 26.8971C54.4826 24.9372 53.644 23.0627 52.1819 21.7551C50.9012 20.609 49.2957 20 47.5957 20C47.3288 20 47.0599 20.0152 46.7895 20.0448C43.7661 20.3828 41.2371 22.8013 40.775 25.7951C40.7537 25.933 40.7516 26.0696 40.7378 26.2075H42.813C43.1481 23.8689 45.1543 22.0696 47.5854 22.0696C50.2516 22.0696 52.413 24.231 52.413 26.8971C52.413 29.5633 50.2516 31.7246 47.5854 31.7246C45.1537 31.7246 43.1481 29.9253 42.813 27.5868H40.7261C40.9054 29.3895 41.7785 31.0488 43.2212 32.2294Z" fill="white"/>
<path d="M57.2415 46.2069V26.8969H55.8622C55.8622 29.4017 54.7422 31.7451 52.7891 33.325C52.1119 33.8726 51.7243 34.6643 51.7243 35.4967V36.5519C51.7243 38.8339 49.8684 40.6897 47.5864 40.6897C45.3043 40.6897 43.4484 38.8339 43.4484 36.5519V35.5002C43.4484 34.6712 43.0478 33.8685 42.3484 33.2968C40.5788 31.8499 39.5305 29.8017 39.3484 27.5865H34.2478L32.1788 32.414H24.4712L26.836 26.8969H22.7588V46.2069H24.1381V33.7933H29.6553V46.2069H31.0347V37.9312H36.5519V46.2069H37.9312V42.069H43.4484V46.2069H57.2415ZM47.5864 42.069H55.8622V43.4483H47.5864V42.069ZM44.8278 42.069H46.2071V43.4483H44.8278V42.069Z" fill="white"/>
<path d="M39.3101 43.4484H42.0687V46.207H39.3101V43.4484Z" fill="white"/>
<path d="M35.8366 53.1039C35.758 54.1136 35.3993 55.0659 34.8076 55.8625H45.1938C44.6021 55.0659 44.2435 54.1136 44.1649 53.1039H35.8366Z" fill="white"/>
<path d="M48.9658 57.2414H31.0348C29.8941 57.2414 28.9658 58.1697 28.9658 59.3103C28.9658 59.6903 29.2748 60 29.6555 60H50.3451C50.7258 60 51.0348 59.6903 51.0348 59.3103C51.0348 58.1697 50.1065 57.2414 48.9658 57.2414Z" fill="white"/>
<path d="M57.931 24.1383H55.3793C55.5379 24.5859 55.6552 25.0465 55.7345 25.5176H57.2414C58.0021 25.5176 58.6207 26.1362 58.6207 26.8968V46.2069C58.6207 46.9675 58.0021 47.5861 57.2414 47.5861H22.7586C21.9979 47.5861 21.3793 46.9675 21.3793 46.2069V26.8968C21.3793 26.1362 21.9979 25.5176 22.7586 25.5176H26.2448L25.6538 24.1383H22.069C20.9283 24.1383 20 25.0665 20 26.2072V49.6551C20 50.7957 20.9283 51.724 22.069 51.724H57.931C59.0717 51.724 60 50.7957 60 49.6551V26.2072C60 25.0665 59.0717 24.1383 57.931 24.1383ZM24.1379 50.3447H22.7586V48.9654H24.1379V50.3447ZM26.8966 50.3447H25.5172V48.9654H26.8966V50.3447ZM29.6552 50.3447H28.2759V48.9654H29.6552V50.3447Z" fill="white"/>
<path d="M32.7476 26.2076L31.2697 22.7594H26.5635L28.0407 26.2076H32.7476Z" fill="white"/>
<path d="M39.3565 26.2072C39.3731 25.9996 39.3799 25.7927 39.4124 25.5845C39.4889 25.0872 39.6179 24.6045 39.7841 24.1383H33.3613L34.2482 26.2072H39.3565Z" fill="white"/>
</svg>
