<svg width="80" height="80" viewBox="0 0 80 80" fill="none" xmlns="http://www.w3.org/2000/svg">
<rect width="80" height="80" rx="5" fill="#428B9B"/>
<path d="M0.5 56L23.5 22.5H31.5H42.5H47V28H49.5L50.5 34H56.5L58.5 36.5L53.5 54.5L55.5 55.5L55 56.5L37 79.5H26H22H15.5H5.5L3 79L1.5 78L0.5 76V69V56Z" fill="#3D3D3D" fill-opacity="0.3"/>
<path d="M59.5108 34.4608C59.0886 33.9594 58.4521 33.6667 57.7784 33.6667H55.5561C55.5561 32.4949 54.5614 31.5455 53.3338 31.5455H51.1116V29.4242C51.1116 28.2525 50.1169 27.303 48.8893 27.303H47.7782V23.0606C47.7782 22.4752 47.2795 22 46.6671 22H24.4445C23.8303 22 23.3334 22.4752 23.3334 23.0606V27.303H22.2223C20.9947 27.303 20 28.2525 20 29.4242V54.8788C20 56.0505 20.9947 57 22.2223 57H26.6668H48.8893H53.3338C54.3756 57 55.2788 56.3093 55.5019 55.3387L59.9464 36.2478C60.094 35.6199 59.9331 34.9623 59.5108 34.4608ZM23.3334 54.8788H22.2223V29.4242H23.3334V54.8788ZM46.6671 31.5455C45.4395 31.5455 44.4448 32.4949 44.4448 33.6667H31.1113C30.0695 33.6667 29.1664 34.3573 28.9415 35.328C28.9415 35.328 24.4463 54.7261 24.4463 54.8788H24.4445V23.0606H46.6671V31.5455ZM48.8893 31.5455H47.7782V29.4242H48.8893V31.5455ZM42.0741 27.7629H28.8152C28.2019 27.7629 27.7041 27.2878 27.7041 26.7023C27.7041 26.1168 28.2019 25.6417 28.8152 25.6417H42.0741C42.6875 25.6417 43.1852 26.1168 43.1852 26.7023C43.1852 27.2878 42.6875 27.7629 42.0741 27.7629ZM42.0741 32.0758H28.8152C28.2019 32.0758 27.7041 31.6006 27.7041 31.0152C27.7041 30.4297 28.2019 29.9545 28.8152 29.9545H42.0741C42.6875 29.9545 43.1852 30.4297 43.1852 31.0152C43.1852 31.6006 42.6875 32.0758 42.0741 32.0758Z" fill="white"/>
</svg>
