<svg width="80" height="80" viewBox="0 0 80 80" fill="none" xmlns="http://www.w3.org/2000/svg">
<rect width="80" height="80" rx="5" fill="#D1A302"/>
<path d="M0.5 60L22.5 38L28.9999 32V60H36.5V45L39 44H48.5L58.0003 48V59L40 79.5H27H22.5H16.5H5L3 79L1.5 77.5L0.5 75.5V68V60Z" fill="#3D3D3D" fill-opacity="0.3"/>
<path d="M61.4993 39.5161C62.2244 38.6924 62.1544 37.4299 61.343 36.6969L43.4665 20.5398C42.6551 19.8068 41.3542 19.8222 40.5599 20.5744L22.6226 37.5584C21.8283 38.3106 21.7893 39.5715 22.5363 40.3735L22.986 40.8573C23.7321 41.6594 24.9381 41.755 25.6779 41.0702L27.0184 39.8302V57.9845C27.0184 59.0983 27.8922 60 28.9697 60H35.9617C37.0392 60 37.913 59.0983 37.913 57.9845V45.2838H46.8313V57.9845C46.8158 59.0975 47.5868 59.9992 48.6643 59.9992H56.0741C57.1516 59.9992 58.0254 59.0975 58.0254 57.9837V40.0858C58.0254 40.0858 58.3957 40.4209 58.8524 40.8356C59.3084 41.2495 60.2661 40.9177 60.9912 40.0931L61.4993 39.5161Z" fill="white"/>
</svg>
