<svg width="80" height="80" viewBox="0 0 80 80" fill="none" xmlns="http://www.w3.org/2000/svg">
<rect width="80" height="80" rx="5" fill="#E60404"/>
<path d="M0.5 61.5L34 20.5L39 23.5L40 26H45H51.5H56.5L56 30.5L58 32L45 49L53 46.5L60 43V43.5L34 79.5H26.5H22H15.5H5.5L3 79L1.5 78L0.5 76V69.5V61.5Z" fill="#3D3D3D" fill-opacity="0.3"/>
<path d="M57.344 41.0574C54.9789 41.2351 51.869 44.1204 48.8707 45.7754C45.1956 47.8068 39.4725 46.1736 39.4719 46.1736C40.3524 45.6704 43.9407 44.6252 44.6639 44.2385C48.5039 42.1789 48.1802 37.8805 46.3509 37.9167C43.9332 37.9635 42.5154 38.6901 37.6928 39.4898C34.038 40.0985 29.7165 39.877 27.6432 40.8428C24.7157 42.2043 20 51.3819 20 51.3819L27.2905 60C27.2905 60 31.8025 54.5775 33.9972 54.5775C38.9995 54.5775 39.2005 54.4963 43.8477 54.1904C45.8222 54.0587 46.2357 53.9626 47.3634 53.4952C53.3854 51.011 59.8502 44.3961 59.9691 43.6024C60.2466 41.7569 58.5952 40.965 57.344 41.0574Z" fill="white"/>
<path d="M36.2387 33.3459C38.4942 33.3459 40.331 31.124 40.3582 28.3803H49.6692V31.6349C49.6692 31.9859 49.9041 32.2724 50.1941 32.2724H52.1056C52.3961 32.2724 52.6305 31.9859 52.6305 31.6349V30.2179H55.1666V31.6349C55.1666 31.9859 55.4013 32.2724 55.6915 32.2724H57.6071C57.8962 32.2724 58.1309 31.9859 58.1309 31.6349V25.6005C58.1309 25.2467 57.896 24.9603 57.6071 24.9603L40.3582 24.9648C40.331 22.2215 38.4942 20 36.2387 20C33.9625 20 32.1145 22.2576 32.1145 25.03V28.3163C32.1145 31.0884 33.9625 33.3459 36.2387 33.3459ZM34.529 25.03C34.529 23.88 35.2941 22.9446 36.2386 22.9446C37.1795 22.9446 37.948 23.88 37.948 25.03V28.3163C37.948 29.4664 37.1794 30.4014 36.2386 30.4014C35.2941 30.4014 34.529 29.4664 34.529 28.3163V25.03Z" fill="white"/>
</svg>
