<svg width="80" height="80" viewBox="0 0 80 80" fill="none" xmlns="http://www.w3.org/2000/svg">
<rect width="80" height="80" rx="5" fill="#00B5AA"/>
<path d="M0.5 54L21.5 26H38.5H46.5H51H57L60 29V50.5L59.5 52.5L58.5 54L39 79.5H26H22H15.5H5.5L3 79L1 77.5L0.5 75V69V54Z" fill="#3D3D3D" fill-opacity="0.3"/>
<path d="M60 32.0739V29.7727C60 27.1368 58.0412 25 55.625 25H24.375C21.9588 25 20 27.1368 20 29.7727V32.0739C20 32.3092 20.1749 32.5 20.3906 32.5H59.6094C59.8251 32.5 60 32.3092 60 32.0739Z" fill="white"/>
<path d="M20 35.6537V50.2275C20 52.8634 21.9588 55.0003 24.375 55.0003H55.625C58.0412 55.0003 60 52.8634 60 50.2275V35.6537C60 35.4184 59.8251 35.2275 59.6094 35.2275H20.3906C20.1749 35.2275 20 35.4184 20 35.6537ZM30 46.8184C30 47.5715 29.4403 48.1821 28.75 48.1821H27.5C26.8097 48.1821 26.25 47.5715 26.25 46.8184V45.4548C26.25 44.7017 26.8097 44.0912 27.5 44.0912H28.75C29.4403 44.0912 30 44.7017 30 45.4548V46.8184Z" fill="white"/>
</svg>
