<svg width="80" height="80" viewBox="0 0 80 80" fill="none" xmlns="http://www.w3.org/2000/svg">
<rect width="80" height="80" rx="5" fill="#30B800"/>
<path d="M0.5 56.5L22 22H40.5H55V27.5V32V42V46V50.5V54L59.5 55.5L44.5 79.5H25.5H21H15H5.5L3 79L1 77L0.5 75V67.5V56.5Z" fill="#3D3D3D" fill-opacity="0.3"/>
<path d="M20 27.1843L20 52.8157C20 56.7773 23.2227 60 27.1843 60H52.8156C56.7773 60 60 56.7773 60 52.8157V27.1843C60 23.2227 56.7773 20 52.8157 20H27.1843C23.2227 20 20 23.2227 20 27.1843ZM51.2157 26.1961V39.0157C54.5509 40.1424 54.5559 44.8755 51.2157 46.0039V53.8039C51.2157 55.3603 48.8627 55.3607 48.8627 53.8039V46.0039C45.5276 44.8773 45.5225 40.1441 48.8627 39.0157V26.1961C48.8627 24.6397 51.2157 24.6392 51.2157 26.1961ZM41.1765 26.1961V28.9765C44.5116 30.1032 44.5167 34.8363 41.1765 35.9648V53.8039C41.1765 55.3603 38.8235 55.3607 38.8235 53.8039V35.9647C35.4884 34.838 35.4833 30.1048 38.8235 28.9764V26.196C38.8235 24.6397 41.1765 24.6392 41.1765 26.1961ZM31.1373 26.1961V44.0353C34.4724 45.162 34.4775 49.8952 31.1373 51.0235V53.8039C31.1373 55.3603 28.7843 55.3607 28.7843 53.8039V51.0235C25.4491 49.8969 25.4441 45.1637 28.7843 44.0353V26.1961C28.7843 24.6397 31.1373 24.6392 31.1373 26.1961Z" fill="white"/>
<path d="M48.7058 42.5103C48.7058 44.2744 51.3725 44.2735 51.3725 42.5103C51.3725 40.7462 48.7058 40.7471 48.7058 42.5103Z" fill="white"/>
<path d="M28.6274 47.5298C28.6274 49.2939 31.2941 49.293 31.2941 47.5298C31.2942 45.7657 28.6274 45.7667 28.6274 47.5298Z" fill="white"/>
<path d="M38.6667 32.4712C38.6667 34.2353 41.3334 34.2344 41.3334 32.4712C41.3335 30.7071 38.6667 30.708 38.6667 32.4712Z" fill="white"/>
</svg>
