<svg width="80" height="80" viewBox="0 0 80 80" fill="none" xmlns="http://www.w3.org/2000/svg">
<rect width="80" height="80" rx="5" fill="#E40C74"/>
<path d="M0.5 68.5V55.5L25.5 30L36.5 20.5L42 26L52 28L54.5 29L52.5 33.5L55.5 36L57 37.5L59 38L60 42.5L52.5 54L33 79.5H24.5H20.5H14.5H6.5H3.5L2 78.5L0.5 76V68.5Z" fill="#3D3D3D" fill-opacity="0.3"/>
<path d="M57.8066 35.6567L54.6731 35.2583C54.4148 34.4633 54.0964 33.6967 53.7247 32.9683L55.6598 30.4767C56.4432 29.4683 56.3515 28.045 55.4565 27.1783L52.8314 24.5533C51.9563 23.65 50.5329 23.56 49.5229 24.3417L47.0345 26.2767C46.3061 25.905 45.5394 25.5867 44.7427 25.3283L44.3443 22.2C44.1943 20.945 43.1293 20 41.8676 20H38.1341C36.8724 20 35.8073 20.945 35.6573 22.195L35.259 25.3283C34.4623 25.5867 33.6956 25.9033 32.9672 26.2767L30.4771 24.3417C29.4704 23.56 28.047 23.65 27.1786 24.545L24.5535 27.1683C23.6502 28.045 23.5585 29.4683 24.3418 30.4783L26.2769 32.9683C25.9036 33.6967 25.5869 34.4633 25.3286 35.2583L22.2001 35.6567C20.945 35.8067 20 36.8717 20 38.1333V41.8667C20 43.1283 20.945 44.1933 22.1951 44.3433L25.3286 44.7417C25.5869 45.5367 25.9052 46.3033 26.2769 47.0317L24.3418 49.5233C23.5585 50.5317 23.6502 51.955 24.5452 52.8217L27.1703 55.4467C28.047 56.3483 29.4687 56.4383 30.4788 55.6567L32.9689 53.7217C33.6972 54.095 34.4639 54.4133 35.259 54.67L35.6573 57.7967C35.8073 59.055 36.8724 60 38.1341 60H41.8676C43.1293 60 44.1943 59.055 44.3443 57.805L44.7427 54.6717C45.5377 54.4133 46.3044 54.095 47.0328 53.7233L49.5246 55.6583C50.5329 56.4417 51.9563 56.35 52.823 55.455L55.4481 52.83C56.3515 51.9533 56.4432 50.5317 55.6598 49.5217L53.7247 47.0317C54.0981 46.3033 54.4164 45.5367 54.6731 44.7417L57.7999 44.3433C59.055 44.1933 60 43.1283 60 41.8667V38.1333C60.0017 36.8717 59.0566 35.8067 57.8066 35.6567ZM40.0008 48.3333C35.4056 48.3333 31.6672 44.595 31.6672 40C31.6672 35.405 35.4056 31.6667 40.0008 31.6667C44.596 31.6667 48.3345 35.405 48.3345 40C48.3345 44.595 44.596 48.3333 40.0008 48.3333Z" fill="white"/>
</svg>
