<svg width="80" height="80" viewBox="0 0 80 80" fill="none" xmlns="http://www.w3.org/2000/svg">
<rect width="80" height="80" rx="5" fill="#A90C86"/>
<path d="M0.5 51.5L25 20.5H35.5H45.5H53V31V44V54.5V57.5L55 59L41 79.5H26H22H15.5H5.5L3 79L1.5 78L0.5 75.5V68V51.5Z" fill="#3D3D3D" fill-opacity="0.3"/>
<path d="M53.7688 20H26.2312C25.5513 20 25 20.5247 25 21.1719V58.8281C25 59.4753 25.5513 60 26.2312 60H53.7688C54.4487 60 55 59.4753 55 58.8281V21.1719C55 20.5247 54.4487 20 53.7688 20ZM45.7215 22.3438V25.6628H34.2785V22.3438H45.7215ZM52.5376 57.6562H27.4624V22.3438H31.8161V26.8347C31.8161 27.4819 32.3673 28.0066 33.0473 28.0066H46.9527C47.6327 28.0066 48.1839 27.4819 48.1839 26.8347V22.3438H52.5376V57.6562Z" fill="white"/>
<path d="M48.1007 37.1672H43.3603C41.7267 37.2291 41.7279 39.4496 43.3603 39.5109H45.1283L39.302 45.0563L35.515 41.4518C35.0343 40.9941 34.2547 40.9941 33.7738 41.4518L31.0286 44.0647C29.9194 45.2078 31.57 46.7772 32.7697 45.7219L34.6444 43.9377L38.4314 47.5423C38.8899 47.9962 39.7141 47.9962 40.1726 47.5423L46.8694 41.1682V42.851C46.9345 44.4058 49.2674 44.4047 49.3318 42.851V38.3391C49.3319 37.6919 48.7807 37.1672 48.1007 37.1672Z" fill="white"/>
</svg>
