<svg width="80" height="80" viewBox="0 0 80 80" fill="none" xmlns="http://www.w3.org/2000/svg">
<rect width="80" height="80" rx="5" fill="#B65903"/>
<path d="M0.5 51.5L27.5 22.5L29.5 24L38 20L43.5 22L44.5 24L47.5 22.5L54.5 26L55 32L53 36L49.5 40L56 40.5L57.5 41.5L58.5 43L59.5 46L60 51L40 79.5H27.5H22.5H16H6H3.5L1.5 78L0.5 76V69V51.5Z" fill="#3D3D3D" fill-opacity="0.3"/>
<path d="M40.0001 39.5626C43.7805 39.5626 46.8454 35.1833 46.8454 29.7813C46.8454 24.3793 45.8389 20 40.0001 20C34.161 20 33.1548 24.3793 33.1548 29.7813C33.1549 35.1833 36.2197 39.5626 40.0001 39.5626Z" fill="white"/>
<path d="M52.9144 54.1026C52.7878 44.6921 51.743 42.0106 43.7487 40.3132C43.7487 40.3132 42.6232 42.0001 40.0003 42.0001C37.3773 42.0001 36.252 40.3132 36.252 40.3132C28.3449 41.992 27.2365 44.6338 27.0908 53.7968C27.0789 54.5451 27.0735 54.5843 27.0713 54.4974C27.0717 54.6602 27.0723 54.9612 27.0723 55.4862C27.0723 55.4862 28.9756 60 40.0004 60C51.0251 60 52.9286 55.4862 52.9286 55.4862C52.9286 55.1489 52.9288 54.9143 52.929 54.7549C52.9268 54.8086 52.9224 54.7045 52.9144 54.1026Z" fill="white"/>
<path d="M49.4995 37.8165C52.5699 37.8165 55.059 34.2598 55.059 29.8724C55.059 25.4848 54.2417 21.9281 49.4995 21.9281C48.7018 21.9281 48.0154 22.0291 47.4249 22.2176C48.5202 24.5931 48.6703 27.4784 48.6703 29.7816C48.6703 32.3893 48.0695 34.879 46.9629 36.9405C47.7235 37.4993 48.5853 37.8165 49.4995 37.8165Z" fill="white"/>
<path d="M59.9879 49.6252C59.8849 41.9822 59.0365 39.8044 52.5436 38.4257C52.5436 38.4257 51.6296 39.7959 49.4993 39.7959C49.4112 39.7959 49.3258 39.7927 49.2417 39.7882C50.5952 40.5062 51.8266 41.5058 52.7334 42.9686C54.301 45.4975 54.6614 48.8946 54.7358 53.8852C59.1041 52.8697 59.9993 50.7491 59.9993 50.7491C59.9993 50.4727 59.9994 50.2832 59.9998 50.1536C59.998 50.1992 59.9944 50.1175 59.9879 49.6252Z" fill="white"/>
<path d="M30.5003 37.8164C31.4145 37.8164 32.2761 37.4992 33.037 36.9405C31.9305 34.879 31.3296 32.3893 31.3296 29.7816C31.3296 27.4783 31.4797 24.593 32.5748 22.2176C31.9844 22.0291 31.2981 21.9281 30.5003 21.9281C25.758 21.9281 24.9409 25.4848 24.9409 29.8724C24.9409 34.2596 27.43 37.8164 30.5003 37.8164Z" fill="white"/>
<path d="M30.7579 39.7882C30.674 39.7927 30.5886 39.7959 30.5003 39.7959C28.37 39.7959 27.456 38.4257 27.456 38.4257C20.9633 39.8044 20.1147 41.9821 20.0118 49.6252C20.0052 50.1176 20.0018 50.1992 20 50.1535C20.0002 50.283 20.0004 50.4726 20.0004 50.749C20.0004 50.749 20.8958 52.8696 25.2637 53.8851C25.3384 48.8946 25.6986 45.4975 27.2665 42.9685C28.1732 41.5059 29.4043 40.5062 30.7579 39.7882Z" fill="white"/>
</svg>
