<svg width="80" height="80" viewBox="0 0 80 80" fill="none" xmlns="http://www.w3.org/2000/svg">
<rect width="80" height="80" rx="5" fill="#22AA58"/>
<path d="M0.5 56.5L20.5 34.5L26 35.5L30 28.5L37 27H43L48.5 27.5L51.5 29.5L54 33.5L56.5 36.5V44.5L55.5 52.5L56.5 54L37 79.5H26H22H15.5H4.5L2.5 79L1.5 78L0.5 76.5V69.5V56.5Z" fill="#3D3D3D" fill-opacity="0.3"/>
<path d="M59.7702 34.2828C59.5745 34.0299 59.2826 33.8823 58.9764 33.8823H55.0835C54.1228 31.1971 52.8713 28.5662 51.4487 27.5731C46.5275 24.1423 33.4743 24.1423 28.5531 27.5731C27.1295 28.5673 25.8831 31.2014 24.9173 33.8823H21.0244C20.7151 33.8823 20.4242 34.0299 20.2306 34.2828C20.036 34.5346 19.9582 34.8678 20.0217 35.1879L20.5983 38.1488C20.6966 38.6535 21.1165 39.0138 21.601 39.0138H22.7542C21.6409 40.3749 21.1012 42.0886 21.094 43.8035C21.0868 45.9221 21.8458 47.8367 23.2335 49.1912C23.2489 49.2053 23.2642 49.2151 23.2786 49.2292V53.372C23.2786 54.2696 23.9668 55 24.8149 55H28.4056C29.2537 55 29.9419 54.2696 29.9419 53.372V51.707H50.0578V53.372C50.0578 54.2696 50.7461 55 51.5941 55H55.1849C56.0309 55 56.7212 54.2696 56.7212 53.372V49.3106C58.1939 47.8812 58.8976 45.9145 58.9068 43.9511C58.9129 42.1776 58.3486 40.4009 57.1698 39.0117H58.3998C58.8863 39.0117 59.3062 38.6513 59.4025 38.1455L59.9801 35.1858C60.0395 34.8678 59.9648 34.5367 59.7702 34.2828ZM30.2399 30.2919C34.1626 27.5557 45.8372 27.5557 49.7578 30.2919C50.5198 30.8216 51.4999 32.963 52.3981 35.5852H27.6016C28.4978 32.9641 29.478 30.8237 30.2399 30.2919ZM25.6455 44.2116C25.6455 42.4425 26.9994 41.0098 28.6678 41.0098C30.3383 41.0098 31.6902 42.4425 31.6902 44.2116C31.6902 45.9807 30.3383 47.4145 28.6678 47.4145C26.9994 47.4145 25.6455 45.9807 25.6455 44.2116ZM51.3719 47.4145C49.7035 47.4145 48.3495 45.9807 48.3495 44.2116C48.3495 42.4425 49.7035 41.0098 51.3719 41.0098C53.0423 41.0098 54.3942 42.4425 54.3942 44.2116C54.3942 45.9807 53.0403 47.4145 51.3719 47.4145Z" fill="white"/>
</svg>
