<svg width="239" height="241" viewBox="0 0 239 241" fill="none" xmlns="http://www.w3.org/2000/svg">
<path d="M166.731 34.5731C144.159 22.3098 117.703 19.5125 93.0993 26.7877C68.4955 34.0629 47.7271 50.8242 35.2972 73.4373C22.8673 96.0505 19.7779 122.693 26.6988 147.588C33.6196 172.482 49.9929 193.623 72.2685 206.426C94.8407 218.689 121.297 221.486 145.901 214.211C170.505 206.936 191.273 190.175 203.703 167.561C216.133 144.948 219.222 118.306 212.301 93.4112C205.38 68.5164 189.007 47.3758 166.731 34.5731ZM96.8356 40.8113C113.092 36.13 130.383 36.6071 146.361 42.1779C162.338 47.7487 176.229 58.1431 186.146 71.9498L139.534 99.4835C135.885 95.9388 131.376 93.4239 126.458 92.1909C121.541 90.9579 116.389 91.0502 111.519 92.4585C106.648 93.8668 102.23 96.5416 98.7081 100.215C95.1861 103.888 92.6837 108.43 91.4519 113.386L37.4596 115.126C38.5774 98.0855 44.8783 81.8072 55.5035 68.5088C66.1287 55.2103 80.5616 45.5386 96.8356 40.8113ZM123.273 133.78C120.668 134.533 117.9 134.49 115.32 133.657C112.739 132.824 110.462 131.238 108.775 129.1C107.088 126.962 106.068 124.367 105.844 121.644C105.62 118.921 106.201 116.193 107.515 113.803C108.828 111.413 110.815 109.47 113.224 108.219C115.633 106.968 118.355 106.466 121.047 106.775C123.739 107.084 126.28 108.192 128.348 109.957C130.416 111.722 131.919 114.066 132.665 116.693C133.663 120.214 133.234 123.991 131.473 127.195C129.712 130.398 126.763 132.766 123.273 133.78ZM40.4758 143.349C39.2779 139.132 38.4124 134.826 37.8872 130.471L91.7528 128.714C93.5456 134.808 97.2606 140.147 102.334 143.919C107.408 147.692 113.563 149.693 119.867 149.619L134.751 201.962C114.622 205.769 93.8086 201.873 76.3757 191.035C58.9428 180.196 46.1428 163.194 40.4758 143.349ZM149.377 197.734L134.502 145.426C139.891 142.119 144.061 137.129 146.381 131.214C148.7 125.299 149.041 118.782 147.352 112.653L193.865 85.2018C198.662 95.4799 201.313 106.642 201.654 117.996C201.994 129.351 200.018 140.654 195.846 151.206C191.675 161.758 185.397 171.332 177.403 179.336C169.41 187.34 159.87 193.602 149.377 197.734Z" fill="white"/>
</svg>
