<svg width="20" height="20" viewBox="0 0 20 20" fill="none" xmlns="http://www.w3.org/2000/svg">
<path d="M18.0645 6.89655C18.1501 6.89655 18.2321 6.86022 18.2926 6.79555C18.3531 6.73089 18.3871 6.64318 18.3871 6.55172V5.51724H19.6774C19.763 5.51724 19.845 5.48091 19.9055 5.41624C19.966 5.35158 20 5.26387 20 5.17241V3.10345C20 3.02746 19.9765 2.9536 19.9332 2.89335C19.8899 2.8331 19.8292 2.78982 19.7605 2.77026L10.0831 0.0116372C10.0286 -0.00387907 9.97136 -0.00387907 9.91693 0.0116372L0.239516 2.77026C0.170828 2.78982 0.11011 2.8331 0.0667971 2.89335C0.0234841 2.9536 2.0116e-06 3.02746 0 3.10345V5.17241C0 5.26387 0.0339861 5.35158 0.0944817 5.41624C0.154977 5.48091 0.237027 5.51724 0.322581 5.51724H1.6129V6.55172C1.6129 6.64318 1.64689 6.73089 1.70738 6.79555C1.76788 6.86022 1.84993 6.89655 1.93548 6.89655H2.90323V15.8621H1.93548C1.84993 15.8621 1.76788 15.8984 1.70738 15.9631C1.64689 16.0277 1.6129 16.1154 1.6129 16.2069V17.2414H0.322581C0.237027 17.2414 0.154977 17.2777 0.0944817 17.3424C0.0339861 17.407 0 17.4948 0 17.5862V19.6552C0 19.7466 0.0339861 19.8343 0.0944817 19.899C0.154977 19.9637 0.237027 20 0.322581 20H19.6774C19.763 20 19.845 19.9637 19.9055 19.899C19.966 19.8343 20 19.7466 20 19.6552V17.5862C20 17.4948 19.966 17.407 19.9055 17.3424C19.845 17.2777 19.763 17.2414 19.6774 17.2414H18.3871V16.2069C18.3871 16.1154 18.3531 16.0277 18.2926 15.9631C18.2321 15.8984 18.1501 15.8621 18.0645 15.8621H17.0968V6.89655H18.0645ZM0.645161 4.82759V3.36853L10 0.701723L19.3548 3.36853V4.82759H0.645161ZM19.3548 17.931V19.3103H0.645161V17.931H19.3548ZM17.7419 16.5517V17.2414H2.25806V16.5517H17.7419ZM3.54839 15.8621V6.89655H4.83871V15.8621H3.54839ZM5.48387 15.8621V6.89655H8.70968V15.8621H5.48387ZM9.35484 15.8621V6.89655H10.6452V15.8621H9.35484ZM11.2903 15.8621V6.89655H14.5161V15.8621H11.2903ZM15.1613 15.8621V6.89655H16.4516V15.8621H15.1613ZM2.25806 6.2069V5.51724H17.7419V6.2069H2.25806Z" fill="#8A8A8A"/>
</svg>
