<svg width="20" height="20" viewBox="0 0 20 20" fill="none" xmlns="http://www.w3.org/2000/svg">
<path d="M13.0706 8.77637H14.5162C14.3572 9.00534 14.0924 9.15566 13.7934 9.15566C13.4944 9.15566 13.2296 9.00534 13.0706 8.77637Z" stroke="#8A8A8A"/>
<path d="M6.70703 10.1558H7.08634V12.604H6.70703V10.1558Z" stroke="#8A8A8A"/>
<path d="M4.0394 5.01757L4.34962 4.29346H5.61503L5.30467 5.01757H4.0394Z" stroke="#8A8A8A"/>
<path d="M3.25781 8.08643H3.63712V12.6036H3.25781V8.08643Z" stroke="#8A8A8A"/>
<path d="M13.7929 0.534815C12.477 0.534815 11.3687 1.40735 11.0068 2.60376H10.9656C11.2946 1.50492 12.2891 0.649344 13.45 0.519376C13.5677 0.50649 13.6838 0.5 13.7981 0.5C14.5253 0.5 15.2093 0.759246 15.7578 1.25015L15.7579 1.25027C16.383 1.80927 16.7416 2.61099 16.7416 3.44858C16.7416 4.34042 16.3433 5.1737 15.6463 5.73782C15.2095 6.09126 14.9039 6.56326 14.7631 7.08646H12.8215C12.678 6.56225 12.3676 6.08748 11.9275 5.72781C11.46 5.34519 11.1332 4.84686 10.9686 4.2934H11.0068C11.3686 5.48978 12.4767 6.36234 13.7929 6.36234C15.4022 6.36234 16.7067 5.05782 16.7067 3.44858C16.7067 1.83934 15.4022 0.534815 13.7929 0.534815Z" stroke="#8A8A8A"/>
<path d="M2.65922 3.94873L1.87891 5.76921V3.94873H2.65922ZM5.32718 6.89697V6.70732H6.08891H6.4186L6.54848 6.40428L7.45309 4.29355H9.23602C9.43026 5.35657 9.9893 6.32614 10.8572 7.03578L10.8573 7.03579C11.1026 7.23636 11.2237 7.50061 11.2237 7.7504V8.27626C11.2237 9.25059 11.7682 10.0995 12.569 10.5348H12.4134H12.2237H11.9134H11.7237H8.96511H8.77546V8.96591V8.46591H8.27546H5.51684H5.32718V6.89697ZM13.2927 12.2245H13.603H13.7927H17.9306H18.1203V12.6038H12.2237V12.2245H12.4134H13.103H13.2927ZM18.1203 5.11892V10.5348H17.9306H15.0164C15.8172 10.0995 16.3617 9.25059 16.3617 8.27626V7.74868C16.3617 7.49097 16.4813 7.23532 16.7084 7.05164L16.7085 7.05156C17.3503 6.53242 17.8319 5.86528 18.1203 5.11892Z" stroke="#8A8A8A"/>
<path d="M10.1562 12.2241H10.5356V12.6034H10.1562V12.2241Z" stroke="#8A8A8A"/>
<path d="M11.7682 17.4315H8.23741C8.28242 17.3079 8.31977 17.1813 8.34918 17.0522H11.6564C11.6858 17.1813 11.7232 17.3079 11.7682 17.4315Z" stroke="#8A8A8A"/>
<path d="M5.51886 19.1206H14.4844C14.7247 19.1206 14.929 19.2809 14.9958 19.4999H5.00744C5.07426 19.2809 5.27857 19.1206 5.51886 19.1206Z" stroke="#8A8A8A"/>
<path d="M18.9655 15.3623H5.32759V15.1726V14.483V14.2933H18.6207C18.9689 14.2933 19.2823 14.1434 19.5 13.9046V14.8278C19.5 15.122 19.2597 15.3623 18.9655 15.3623ZM0.5 13.9046C0.606047 14.0209 0.734841 14.1162 0.87931 14.1833V14.483V15.1726V15.3392C0.660277 15.2724 0.5 15.0681 0.5 14.8278V13.9046Z" stroke="#8A8A8A"/>
<path d="M4.0394 1.87988H5.30467L5.61503 2.604H4.34962L4.0394 1.87988Z" stroke="#8A8A8A"/>
<path d="M9.23644 2.56934C9.23424 2.58081 9.23209 2.5923 9.22998 2.60381H7.4528L7.43803 2.56934H9.23644ZM9.21108 2.71604C9.19561 2.8156 9.18828 2.92579 9.18304 3.00446C9.18152 3.02734 9.18017 3.04755 9.17886 3.06406L9.67727 3.10381L9.21108 2.71604Z" stroke="#8A8A8A"/>
</svg>
