<svg width="20" height="20" viewBox="0 0 20 20" fill="none" xmlns="http://www.w3.org/2000/svg">
<path d="M19.5035 9.80525L19.5077 9.83171L19.5173 9.85669C19.6668 10.2433 19.7497 10.6663 19.7497 11.1097V11.1097V11.3597H19.75V12.7264C19.75 12.9599 19.727 13.188 19.6837 13.4083L19.6714 13.471L19.6907 13.532C19.7283 13.6507 19.75 13.7793 19.75 13.9134V18.723C19.75 19.3362 19.3464 19.75 18.9419 19.75H16.8721C16.4678 19.75 16.064 19.3362 16.064 18.723V16.3181V16.0681H15.814H4.31114H4.06114V16.3181V18.723C4.06114 19.3363 3.65738 19.75 3.25347 19.75H1.05798C0.653718 19.75 0.25 19.3362 0.25 18.723V13.914C0.25 13.7791 0.271475 13.6513 0.309279 13.5324L0.328751 13.4712L0.316293 13.4082C0.272886 13.1886 0.25 12.9603 0.25 12.7266V11.1097C0.25 10.5325 0.389466 9.99068 0.634131 9.51757L0.642275 9.50182L0.648116 9.48508L2.46531 4.2762L2.46562 4.27631L2.4692 4.26408C2.78015 3.20177 3.12452 2.19108 3.65443 1.44604C4.17373 0.715925 4.86356 0.25 5.89163 0.25H14.2766C15.2788 0.25 15.9734 0.704582 16.5018 1.43094C17.0394 2.16979 17.3979 3.1823 17.7007 4.26997L17.7117 4.31367L17.7141 4.32294L17.7171 4.332L19.4501 9.51557C19.4711 9.61178 19.4882 9.70766 19.5035 9.80525ZM17.8123 8.03428L18.3818 8.28881L18.1457 7.71143L16.8835 4.62417C16.5675 3.49583 16.2448 2.69376 15.8409 2.1718C15.4195 1.62738 14.9119 1.39101 14.2761 1.39101H5.89163C5.58343 1.39101 5.29936 1.44037 5.03695 1.56402C4.77383 1.688 4.54753 1.8796 4.34477 2.14218C3.94883 2.65494 3.62744 3.46006 3.283 4.63056L1.98119 7.65451L1.74246 8.20905L2.30334 7.98561C2.65479 7.8456 3.03525 7.76837 3.43348 7.76837H16.5663C17.0087 7.76837 17.4295 7.8632 17.8123 8.03428ZM2.29115 13.5907H4.60762C5.2047 13.5907 5.61313 13.024 5.61313 12.4287C5.61313 11.8333 5.20491 11.2669 4.60762 11.2669H2.29115C1.69401 11.2669 1.28582 11.8333 1.28582 12.4287C1.28582 13.0239 1.69395 13.5907 2.29115 13.5907ZM7.40247 13.408H12.7907C13.2352 13.408 13.5192 12.9916 13.5192 12.5808C13.5192 12.1696 13.2352 11.7532 12.7907 11.7532H7.40247C6.95814 11.7532 6.67424 12.1697 6.67424 12.5808C6.67424 12.9915 6.95824 13.408 7.40247 13.408ZM15.3338 13.5907H17.6502C18.2476 13.5907 18.656 13.024 18.656 12.4287C18.656 11.8332 18.2476 11.2669 17.6502 11.2669H15.3338C14.7366 11.2669 14.3283 11.8333 14.3283 12.4287C14.3283 13.0239 14.7362 13.5907 15.3338 13.5907Z" stroke="#8A8A8A" stroke-width="0.5"/>
</svg>
