<svg width="18" height="18" viewBox="0 0 18 18" fill="none" xmlns="http://www.w3.org/2000/svg">
<path d="M9 1C4.58887 1 1 4.58887 1 9C1 13.4111 4.58887 17 9 17C13.4111 17 17 13.4111 17 9C17 4.58887 13.4111 1 9 1ZM9 16.3333C4.95638 16.3333 1.66666 13.0436 1.66666 9C1.66666 4.95638 4.95638 1.66666 9 1.66666C13.0436 1.66666 16.3333 4.95638 16.3333 9C16.3333 13.0436 13.0436 16.3333 9 16.3333Z" fill="white" stroke="white"/>
<path d="M13.098 5.76438L7.33366 11.5287L4.236 8.43107C4.10578 8.30085 3.89484 8.30085 3.76466 8.43107C3.63444 8.56129 3.63444 8.77223 3.76466 8.90242L7.098 12.2358C7.16309 12.3009 7.24841 12.3334 7.33369 12.3334C7.41897 12.3334 7.50425 12.3009 7.56938 12.2358L13.5694 6.23576C13.6996 6.10554 13.6996 5.8946 13.5694 5.76442C13.4391 5.6342 13.2282 5.6342 13.098 5.76438Z" fill="white" stroke="white"/>
</svg>
