<svg width="20" height="20" viewBox="0 0 20 20" fill="none" xmlns="http://www.w3.org/2000/svg">
<path d="M7.8125 0H1.5625C0.700938 0 0 0.700938 0 1.5625V10.3125C0 11.1741 0.700938 11.875 1.5625 11.875H7.8125C8.67406 11.875 9.375 11.1741 9.375 10.3125V1.5625C9.375 0.700938 8.67406 0 7.8125 0ZM8.75 10.3125C8.75 10.8294 8.32945 11.25 7.8125 11.25H1.5625C1.04555 11.25 0.625 10.8294 0.625 10.3125V1.5625C0.625 1.04559 1.04555 0.625 1.5625 0.625H7.8125C8.32945 0.625 8.75 1.04559 8.75 1.5625V10.3125Z" fill="#3968F9"/>
<path d="M7.8125 13.125H1.5625C0.700938 13.125 0 13.8259 0 14.6875V18.4375C0 19.2991 0.700938 20 1.5625 20H7.8125C8.67406 20 9.375 19.2991 9.375 18.4375V14.6875C9.375 13.8259 8.67406 13.125 7.8125 13.125ZM8.75 18.4375C8.75 18.9544 8.32945 19.375 7.8125 19.375H1.5625C1.04555 19.375 0.625 18.9544 0.625 18.4375V14.6875C0.625 14.1706 1.04555 13.75 1.5625 13.75H7.8125C8.32945 13.75 8.75 14.1706 8.75 14.6875V18.4375Z" fill="#3968F9"/>
<path d="M20 18.4375V9.6875C20 8.82594 19.2991 8.125 18.4375 8.125H12.1875C11.3259 8.125 10.625 8.82594 10.625 9.6875V18.4375C10.625 19.2991 11.3259 20 12.1875 20H18.4375C19.2991 20 20 19.2991 20 18.4375ZM19.375 18.4375C19.375 18.9544 18.9545 19.375 18.4375 19.375H12.1875C11.6705 19.375 11.25 18.9544 11.25 18.4375V9.6875C11.25 9.17059 11.6705 8.75 12.1875 8.75H18.4375C18.9545 8.75 19.375 9.17059 19.375 9.6875V18.4375Z" fill="#3968F9"/>
<path d="M20 5.3125V1.5625C20 0.700938 19.2991 0 18.4375 0H12.1875C11.3259 0 10.625 0.700938 10.625 1.5625V5.3125C10.625 6.17406 11.3259 6.875 12.1875 6.875H18.4375C19.2991 6.875 20 6.17406 20 5.3125ZM19.375 5.3125C19.375 5.82941 18.9545 6.25 18.4375 6.25H12.1875C11.6705 6.25 11.25 5.82941 11.25 5.3125V1.5625C11.25 1.04559 11.6705 0.625 12.1875 0.625H18.4375C18.9545 0.625 19.375 1.04559 19.375 1.5625V5.3125Z" fill="#3968F9"/>
</svg>
