<svg width="12" height="12" viewBox="0 0 12 12" fill="none" xmlns="http://www.w3.org/2000/svg">
<path d="M9.77342 2.30908L8.96463 11.0272H3.03526L2.22664 2.30908L1.20203 2.39404L2.02541 11.2703C2.06874 11.6794 2.44401 12.0002 2.87996 12.0002H9.11996C9.55573 12.0002 9.93115 11.6796 9.9752 11.2645L10.7981 2.39404L9.77342 2.30908Z" fill="#9E0505"/>
<path d="M11.4857 1.86475H0.514291C0.230226 1.86475 0 2.08253 0 2.35124C0 2.61995 0.230226 2.83773 0.514291 2.83773H11.4857C11.7698 2.83773 12 2.61995 12 2.35124C12 2.08253 11.7697 1.86475 11.4857 1.86475Z" fill="#9E0505"/>
<path d="M7.88565 0H4.11423C3.64159 0 3.25708 0.363727 3.25708 0.81082V2.35137H4.28564V0.972961H7.71419V2.35134H8.74275V0.810797C8.7428 0.363727 8.35829 0 7.88565 0Z" fill="#9E0505"/>
</svg>
