<svg width="20" height="20" viewBox="0 0 20 20" fill="none" xmlns="http://www.w3.org/2000/svg">
<path d="M17.2781 6.66667V7.16667H17.7781H18.8892C19.0561 7.16667 19.2292 7.24925 19.3529 7.41706C19.4775 7.58617 19.5295 7.81675 19.4834 8.04086L19.4833 8.04177L17.261 18.9509L17.2608 18.9521C17.1905 19.3015 16.922 19.5 16.6669 19.5H14.4447H3.33338H1.11113C0.954765 19.5 0.793998 19.4236 0.676624 19.2879H1.11113H1.66669H1.72226H2.16669H2.22226H2.22315H2.72315V18.8287C2.72693 18.8081 2.73235 18.7792 2.73947 18.7421C2.75566 18.6575 2.77958 18.5351 2.81026 18.3796C2.87157 18.0689 2.95925 17.6293 3.06458 17.1037C3.27522 16.0526 3.55611 14.6592 3.83704 13.2682C4.11797 11.8773 4.3989 10.4891 4.6096 9.44857L4.8642 8.19177L4.93553 7.83984L4.95432 7.74715L4.95914 7.72339L4.96035 7.71738L4.96066 7.71587L4.96074 7.71549C4.96075 7.7154 4.96076 7.71536 4.47074 7.616L4.96076 7.71536L4.96077 7.71534C5.03177 7.36512 5.30067 7.16667 5.55564 7.16667H12.2224H12.7224V6.66667C12.7224 6.2314 13.036 5.95455 13.3335 5.95455H13.3891H13.8335H13.8891H14.4447H14.9447V5.45455V4.24242V3.83188C15.0133 3.94329 15.0558 4.08212 15.0558 4.24242V5.45455V5.95455H15.5558H16.6669C16.9645 5.95455 17.2781 6.2314 17.2781 6.66667ZM0.611128 19.1984C0.54253 19.087 0.5 18.9482 0.5 18.7879V4.24242C0.5 4.08212 0.54253 3.9433 0.611128 3.83188V4.24242V18.7879V19.1984ZM1.11113 3.74242H0.676623C0.793997 3.60674 0.954765 3.5303 1.11113 3.5303H1.66669H1.72226V3.74242H1.66669H1.11113ZM13.8335 3.74242V3.5303H13.8891H14.4447C14.601 3.5303 14.7618 3.60674 14.8792 3.74242H14.4447H13.8891H13.8335ZM11.0371 2.79309H4.40762L4.40758 2.79309C4.40687 2.79312 4.39796 2.79352 4.38341 2.77765C4.36783 2.76065 4.35206 2.72986 4.35206 2.68703C4.35206 2.6442 4.36783 2.61341 4.38341 2.59641C4.39835 2.58012 4.40734 2.58097 4.40762 2.58097H11.0371L11.0371 2.58097C11.0378 2.58094 11.0467 2.58054 11.0613 2.59641C11.0769 2.61341 11.0926 2.6442 11.0926 2.68703C11.0926 2.72986 11.0769 2.76065 11.0613 2.77765C11.0463 2.79394 11.0373 2.79309 11.0371 2.79309ZM11.0371 5.25758H4.40762L4.40758 5.25758C4.40687 5.25761 4.39796 5.258 4.38341 5.24214C4.36783 5.22513 4.35206 5.19434 4.35206 5.15152C4.35206 5.10869 4.36783 5.0779 4.38341 5.0609C4.39835 5.0446 4.40734 5.04545 4.40762 5.04545H11.0371C11.0373 5.04545 11.0463 5.0446 11.0613 5.0609C11.0769 5.0779 11.0926 5.10869 11.0926 5.15152C11.0926 5.19434 11.0769 5.22513 11.0613 5.24214C11.0463 5.25843 11.0373 5.25758 11.0371 5.25758Z" stroke="#8A8A8A"/>
</svg>
