<svg width="20" height="20" viewBox="0 0 20 20" fill="none" xmlns="http://www.w3.org/2000/svg">
<path d="M18.7463 9.99202C18.7327 9.99674 18.7214 10.0001 18.7122 10.0024L18.4693 9.78208L18.3805 9.7017L18.3564 9.67983L18.3501 9.67414L18.3485 9.67268L18.3481 9.67231L18.348 9.67222L18.3479 9.67219L18.0124 10.0429L18.3479 9.67218L17.5124 8.91615V10.0429V18.9918C17.5124 19.2879 17.2844 19.4996 17.0368 19.4996H13.3319C13.1179 19.4996 12.9108 19.3251 12.9154 18.9992H12.9154V18.9922V12.6419V12.1419H12.4154H7.95624H7.45624V12.6419V18.9922C7.45624 19.2883 7.22821 19.5 6.9806 19.5H3.4846C3.23699 19.5 3.00896 19.2883 3.00896 18.9922V9.91511V8.77148L2.16944 9.54807L1.49917 10.1681L1.49907 10.1682C1.3596 10.2973 1.07138 10.3166 0.858846 10.0881L0.634111 9.84634L0.633782 9.84599C0.446982 9.64543 0.457456 9.32919 0.654831 9.14226C0.654838 9.14225 0.654845 9.14224 0.654852 9.14224L9.62346 0.650268L9.62348 0.650248C9.83115 0.453593 10.1858 0.449499 10.3977 0.640833C10.3978 0.640866 10.3978 0.640898 10.3979 0.64093L19.336 8.71941L19.3361 8.71951C19.5375 8.90142 19.557 9.2199 19.3742 9.42761C19.3742 9.42764 19.3741 9.42767 19.3741 9.4277L19.1201 9.71611L19.1199 9.71637C18.9844 9.87042 18.8435 9.95829 18.7463 9.99202ZM18.6792 10.0072C18.6794 10.0069 18.682 10.0067 18.6868 10.0073C18.6814 10.0078 18.6791 10.0075 18.6792 10.0072Z" stroke="#8A8A8A"/>
</svg>
