<svg width="20" height="15" viewBox="0 0 20 15" fill="none" xmlns="http://www.w3.org/2000/svg">
<path d="M11.2663 10.7879H9.54184L9.8059 10.451C9.92824 10.2949 9.9416 10.0221 9.83574 9.84175C9.72984 9.66126 9.54488 9.64162 9.4225 9.79769L8.66434 10.765C8.57477 10.8813 8.52344 11.047 8.52344 11.2199C8.52344 11.3927 8.57484 11.5585 8.66621 11.677L9.42246 12.6419C9.47785 12.7125 9.54613 12.7471 9.61402 12.7471C9.69613 12.7471 9.77777 12.6965 9.8357 12.5978C9.94156 12.4174 9.92824 12.1447 9.80586 11.9886L9.5418 11.6517H11.2662C11.428 11.6517 11.5592 11.4584 11.5592 11.2198C11.5592 10.9812 11.428 10.7879 11.2663 10.7879Z" fill="#8A8A8A"/>
<path d="M11.4156 4.94772L10.6616 3.98274C10.5395 3.82626 10.3544 3.84567 10.2484 4.02576C10.1423 4.2059 10.1554 4.47871 10.2775 4.63512L10.5411 4.97243H8.81641C8.65461 4.97243 8.52344 5.16576 8.52344 5.40436C8.52344 5.64296 8.65461 5.83629 8.81641 5.83629H10.5416L10.2777 6.17342C10.1554 6.32967 10.1422 6.60241 10.2482 6.78273C10.3061 6.88127 10.3877 6.93178 10.4697 6.93178C10.5377 6.93178 10.606 6.89705 10.6614 6.82627L11.4161 5.86209C11.5082 5.74483 11.5607 5.5769 11.56 5.40125C11.5594 5.22756 11.5068 5.0625 11.4156 4.94772Z" fill="#8A8A8A"/>
<path d="M19.2524 10.9026C18.8374 10.4615 18.3256 10.2601 17.8307 10.0653C17.7737 10.0429 17.7171 10.0207 17.6616 9.99832C17.5614 9.95783 17.4923 9.76945 17.4421 9.59052C18.3122 8.73703 18.9633 7.25027 18.9633 5.95644V4.77774C18.9633 3.33458 18.6511 2.11049 18.0604 1.23759C17.5326 0.457643 16.822 0.0181122 16.0596 8.63858e-05C16.0565 -2.87953e-05 16.0534 -2.87953e-05 16.0502 8.63858e-05C15.2883 0.0181122 14.5781 0.457643 14.0504 1.23765C13.4598 2.11055 13.1477 3.33469 13.1477 4.77774V5.95644C13.1477 7.25085 13.7988 8.7376 14.6688 9.59075C14.6186 9.76957 14.5493 9.95766 14.4487 9.9982C14.3926 10.0208 14.3359 10.0431 14.2789 10.0656C13.7843 10.2604 13.273 10.4618 12.8583 10.9029C12.3557 11.4376 12.1113 12.2018 12.1113 13.2392V14.2562C12.1113 14.6663 12.3371 14.9999 12.6147 14.9999H15.4239C15.5857 14.9999 15.7168 14.8066 15.7168 14.568C15.7168 14.3294 15.5857 14.1361 15.4239 14.1361H12.6973V13.2392C12.6973 11.8913 13.1956 11.4382 14.0386 11.0626L15.5472 12.3665C15.7322 12.5415 15.8939 12.6291 16.0556 12.6291C16.2173 12.6291 16.3789 12.5415 16.564 12.3664L18.0716 11.0625C18.9151 11.438 19.4138 11.8911 19.4138 13.2392V14.1361H16.7237C16.5619 14.1361 16.4307 14.3295 16.4307 14.5681C16.4307 14.8067 16.5619 15 16.7237 15H19.4953C19.7734 15 19.9997 14.6664 19.9997 14.2563V13.2392C19.9997 12.2016 19.7553 11.4372 19.2524 10.9026ZM16.0549 0.863944C17.0978 0.891818 18.2131 1.96663 18.3609 4.25378C18.1614 4.15058 18.0481 3.98011 17.9304 3.8029C17.7795 3.57594 17.5836 3.28113 17.2386 3.28113C17.1568 3.28113 17.0664 3.29772 16.9664 3.33579C16.832 3.3867 16.7176 3.43162 16.6184 3.47055C16.3246 3.5859 16.1773 3.64384 16.0549 3.64384C15.9336 3.64384 15.7865 3.58608 15.4935 3.47095C15.3941 3.43191 15.2794 3.38687 15.1447 3.33584C14.6222 3.13739 14.3666 3.52221 14.18 3.80319C14.0624 3.98023 13.9493 4.15052 13.7501 4.25372C13.8978 1.96657 15.0126 0.891818 16.0549 0.863944ZM13.7336 5.95644V5.15277C14.1975 5.00937 14.4341 4.6553 14.5986 4.4076C14.7646 4.15783 14.804 4.09863 14.9988 4.17246C15.1317 4.2228 15.2448 4.26726 15.3427 4.30567C15.6743 4.43594 15.857 4.5077 16.055 4.5077C16.254 4.5077 16.437 4.43582 16.7693 4.30532C16.867 4.26691 16.9798 4.22262 17.1125 4.17235C17.3065 4.09852 17.346 4.15783 17.5119 4.40749C17.6765 4.65519 17.9134 5.00937 18.3774 5.15271V5.95639C18.3774 7.20028 17.5509 8.74354 16.6084 9.25903C16.2002 9.48271 15.9108 9.4826 15.5024 9.25891C14.5601 8.74405 13.7336 7.2008 13.7336 5.95644ZM16.2621 11.6259C16.2584 11.6291 16.2548 11.6323 16.2513 11.6358C16.072 11.8067 16.039 11.8067 15.8597 11.6358C15.8561 11.6323 15.8525 11.6291 15.8488 11.6259L14.7921 10.7126C14.9926 10.5375 15.1105 10.2524 15.1863 10.0032C15.2235 10.0263 15.2609 10.0483 15.2985 10.0688C15.5674 10.2161 15.8114 10.2897 16.0555 10.2897C16.2996 10.2897 16.5437 10.2161 16.8124 10.0689C16.85 10.0483 16.8874 10.0263 16.9246 10.0032C17.0003 10.2522 17.1181 10.5374 17.3182 10.7126L16.2621 11.6259Z" fill="#8A8A8A"/>
<path d="M7.14043 10.9029C6.72574 10.4618 6.21434 10.2604 5.71984 10.0656C5.66281 10.0431 5.60609 10.0208 5.55031 9.99832C5.45023 9.95789 5.38086 9.76899 5.33047 9.59012C6.2002 8.7368 6.85098 7.25045 6.85098 5.95644V4.77774C6.85098 3.33452 6.53898 2.11043 5.94871 1.23771C5.42113 0.457642 4.71078 0.0181122 3.9484 8.63858e-05C3.94527 -2.87953e-05 3.94211 -2.87953e-05 3.93898 8.63858e-05C3.17664 0.0181122 2.46625 0.457642 1.93871 1.23771C1.34844 2.11038 1.03641 3.33452 1.03641 4.77774V5.95644C1.03641 7.25056 1.68727 8.73709 2.55687 9.59023C2.50652 9.76911 2.43723 9.95789 2.33742 9.99826C2.28129 10.0208 2.22457 10.0431 2.1675 10.0656C1.67297 10.2604 1.16164 10.4618 0.746914 10.903C0.244336 11.4376 0 12.2018 0 13.2392V14.2563C0 14.6664 0.22582 15 0.503359 15H3.27379C3.43559 15 3.56676 14.8067 3.56676 14.5681C3.56676 14.3295 3.43559 14.1361 3.27379 14.1361H0.585938V13.2392C0.585938 11.8913 1.0843 11.4383 1.9273 11.0626L3.4359 12.3665C3.62066 12.5413 3.78219 12.6288 3.94371 12.6288C4.10523 12.6288 4.26672 12.5413 4.45152 12.3665L5.96012 11.0626C6.80316 11.4383 7.30148 11.8913 7.30148 13.2392V14.1361H4.65793C4.49613 14.1361 4.36496 14.3294 4.36496 14.568C4.36496 14.8066 4.49613 14.9999 4.65793 14.9999H7.38406C7.6616 14.9999 7.88742 14.6663 7.88742 14.2562V13.2392C7.88738 12.2018 7.64305 11.4376 7.14043 10.9029ZM3.94367 0.863944C4.98598 0.891761 6.10066 1.96663 6.24852 4.25355C6.04977 4.15035 5.93672 3.98028 5.81914 3.80342C5.6323 3.52232 5.37633 3.1371 4.85402 3.33584C4.71824 3.38727 4.60297 3.4326 4.5032 3.47176C4.21172 3.58631 4.06543 3.64384 3.94363 3.64384C3.82234 3.64384 3.67527 3.58608 3.3823 3.47101C3.28289 3.43191 3.16812 3.38687 3.03344 3.33584C2.51082 3.13739 2.25531 3.52221 2.06867 3.80319C1.95109 3.98023 1.83797 4.15052 1.63879 4.25372C1.78656 1.96657 2.90133 0.891761 3.94367 0.863944ZM1.62234 5.95644V5.15277C2.08621 5.00943 2.32289 4.6553 2.48738 4.4076C2.65328 4.15783 2.69273 4.09863 2.8875 4.17246C3.02043 4.22285 3.13355 4.26726 3.23152 4.30573C3.56305 4.43594 3.7457 4.5077 3.94367 4.5077C4.14223 4.5077 4.32406 4.43623 4.65418 4.30642C4.7525 4.26777 4.86609 4.22314 5.00004 4.1724C5.19481 4.09857 5.23434 4.15783 5.40066 4.40801C5.56516 4.65553 5.80184 5.00931 6.265 5.15271V5.95644C6.265 7.2008 5.43848 8.74406 4.49582 9.2592C4.08816 9.483 3.79918 9.483 3.39105 9.25897C2.44887 8.74406 1.62234 7.2008 1.62234 5.95644ZM4.14984 11.6259C4.14617 11.6291 4.1425 11.6323 4.13895 11.6358C3.96012 11.8062 3.92727 11.8062 3.74844 11.6358C3.74484 11.6323 3.74121 11.6291 3.73754 11.6259L2.68066 10.7124C2.88074 10.5371 2.99852 10.2514 3.0743 10.0028C3.11168 10.026 3.14926 10.0481 3.18703 10.0687C3.45582 10.2163 3.6998 10.2901 3.94379 10.2901C4.18766 10.2901 4.43148 10.2164 4.69992 10.0689C4.73785 10.0482 4.77559 10.026 4.81309 10.0027C4.88883 10.2513 5.00664 10.5369 5.20676 10.7124L4.14984 11.6259Z" fill="#8A8A8A"/>
</svg>
