<svg width="20" height="20" viewBox="0 0 20 20" fill="none" xmlns="http://www.w3.org/2000/svg">
<path d="M5.61743 19.9999H0.285714C0.209938 19.9999 0.137266 19.9698 0.0836838 19.9162C0.0301019 19.8627 0 19.79 0 19.7142V5.12849C0 5.05271 0.0301019 4.98004 0.0836838 4.92646C0.137266 4.87288 0.209938 4.84277 0.285714 4.84277H5.61743C5.6932 4.84277 5.76588 4.87288 5.81946 4.92646C5.87304 4.98004 5.90314 5.05271 5.90314 5.12849V19.7142C5.90314 19.79 5.87304 19.8627 5.81946 19.9162C5.76588 19.9698 5.6932 19.9999 5.61743 19.9999ZM0.571429 19.4285H5.33171V5.4142H0.571429V19.4285Z" fill="#8A8A8A"/>
<path d="M19.7141 19.9996H14.3824C14.3066 19.9996 14.2339 19.9695 14.1804 19.916C14.1268 19.8624 14.0967 19.7897 14.0967 19.7139V9.30622C14.0967 9.23045 14.1268 9.15777 14.1804 9.10419C14.2339 9.05061 14.3066 9.02051 14.3824 9.02051H19.7141C19.7899 9.02051 19.8626 9.05061 19.9161 9.10419C19.9697 9.15777 19.9998 9.23045 19.9998 9.30622V19.7139C19.9998 19.7897 19.9697 19.8624 19.9161 19.916C19.8626 19.9695 19.7899 19.9996 19.7141 19.9996ZM14.6681 19.4282H19.4284V9.59194H14.6681V19.4282Z" fill="#8A8A8A"/>
<path d="M14.3824 20H5.61726C5.54148 20 5.46881 19.9699 5.41523 19.9163C5.36165 19.8627 5.33154 19.7901 5.33154 19.7143V0.285714C5.33154 0.209938 5.36165 0.137266 5.41523 0.0836838C5.46881 0.0301019 5.54148 0 5.61726 0H14.3824C14.4582 0 14.5308 0.0301019 14.5844 0.0836838C14.638 0.137266 14.6681 0.209938 14.6681 0.285714V19.7143C14.6681 19.7901 14.638 19.8627 14.5844 19.9163C14.5308 19.9699 14.4582 20 14.3824 20ZM5.90297 19.4286H14.0967V0.571429H5.90297V19.4286Z" fill="#8A8A8A"/>
<path d="M12.2143 20.0004H7.78571C7.70994 20.0004 7.63727 19.9703 7.58368 19.9167C7.5301 19.8631 7.5 19.7905 7.5 19.7147V12.9595C7.5 12.8838 7.5301 12.8111 7.58368 12.7575C7.63727 12.7039 7.70994 12.6738 7.78571 12.6738H12.2143C12.2901 12.6738 12.3627 12.7039 12.4163 12.7575C12.4699 12.8111 12.5 12.8838 12.5 12.9595V19.7147C12.5 19.7905 12.4699 19.8631 12.4163 19.9167C12.3627 19.9703 12.2901 20.0004 12.2143 20.0004ZM8.07143 19.429H11.9286V13.2453H8.07143V19.429Z" fill="#8A8A8A"/>
<path d="M3.85723 9.87431H2.04694C1.97117 9.87431 1.8985 9.8442 1.84491 9.79062C1.79133 9.73704 1.76123 9.66437 1.76123 9.58859V7.77888C1.76123 7.7031 1.79133 7.63043 1.84491 7.57685C1.8985 7.52327 1.97117 7.49316 2.04694 7.49316H3.85723C3.93301 7.49316 4.00568 7.52327 4.05926 7.57685C4.11284 7.63043 4.14294 7.7031 4.14294 7.77888V9.58859C4.14294 9.66437 4.11284 9.73704 4.05926 9.79062C4.00568 9.8442 3.93301 9.87431 3.85723 9.87431ZM2.33352 9.30288H3.57152V8.06459H2.33266L2.33352 9.30288Z" fill="#8A8A8A"/>
<path d="M3.85723 13.6123H2.04694C1.97117 13.6123 1.8985 13.5822 1.84491 13.5286C1.79133 13.475 1.76123 13.4024 1.76123 13.3266V11.5172C1.76123 11.4414 1.79133 11.3687 1.84491 11.3151C1.8985 11.2615 1.97117 11.2314 2.04694 11.2314H3.85723C3.93301 11.2314 4.00568 11.2615 4.05926 11.3151C4.11284 11.3687 4.14294 11.4414 4.14294 11.5172V13.3266C4.14294 13.4024 4.11284 13.475 4.05926 13.5286C4.00568 13.5822 3.93301 13.6123 3.85723 13.6123ZM2.33352 13.0409H3.57152V11.8029H2.33266L2.33352 13.0409Z" fill="#8A8A8A"/>
<path d="M3.85723 17.3496H2.04694C1.97117 17.3496 1.8985 17.3195 1.84491 17.2659C1.79133 17.2123 1.76123 17.1397 1.76123 17.0639V15.2545C1.76123 15.1787 1.79133 15.106 1.84491 15.0524C1.8985 14.9989 1.97117 14.9688 2.04694 14.9688H3.85723C3.93301 14.9688 4.00568 14.9989 4.05926 15.0524C4.11284 15.106 4.14294 15.1787 4.14294 15.2545V17.0639C4.14294 17.1397 4.11284 17.2123 4.05926 17.2659C4.00568 17.3195 3.93301 17.3496 3.85723 17.3496ZM2.33352 16.7782H3.57152V15.5402H2.33266L2.33352 16.7782Z" fill="#8A8A8A"/>
<path d="M17.9534 13.6123H16.1431C16.0674 13.6123 15.9947 13.5822 15.9411 13.5286C15.8875 13.475 15.8574 13.4024 15.8574 13.3266V11.5172C15.8574 11.4414 15.8875 11.3687 15.9411 11.3151C15.9947 11.2615 16.0674 11.2314 16.1431 11.2314H17.9526C18.0283 11.2314 18.101 11.2615 18.1546 11.3151C18.2082 11.3687 18.2383 11.4414 18.2383 11.5172V13.3266C18.2383 13.4022 18.2083 13.4748 18.1549 13.5283C18.1015 13.5819 18.029 13.6121 17.9534 13.6123ZM16.4297 13.0409H17.6677V11.8029H16.4289L16.4297 13.0409Z" fill="#8A8A8A"/>
<path d="M17.9534 17.3496H16.1431C16.0674 17.3496 15.9947 17.3195 15.9411 17.2659C15.8875 17.2123 15.8574 17.1397 15.8574 17.0639V15.2545C15.8574 15.1787 15.8875 15.106 15.9411 15.0524C15.9947 14.9989 16.0674 14.9688 16.1431 14.9688H17.9526C18.0283 14.9688 18.101 14.9989 18.1546 15.0524C18.2082 15.106 18.2383 15.1787 18.2383 15.2545V17.0639C18.2383 17.1395 18.2083 17.2121 18.1549 17.2656C18.1015 17.3192 18.029 17.3494 17.9534 17.3496ZM16.4297 16.7782H17.6677V15.5402H16.4289L16.4297 16.7782Z" fill="#8A8A8A"/>
<path d="M9.02833 3.99219H7.21833C7.14256 3.99219 7.06988 3.96208 7.0163 3.9085C6.96272 3.85492 6.93262 3.78225 6.93262 3.70647V1.89704C6.93262 1.82127 6.96272 1.74859 7.0163 1.69501C7.06988 1.64143 7.14256 1.61133 7.21833 1.61133H9.02833C9.10411 1.61133 9.17678 1.64143 9.23036 1.69501C9.28394 1.74859 9.31405 1.82127 9.31405 1.89704V3.70647C9.31405 3.78225 9.28394 3.85492 9.23036 3.9085C9.17678 3.96208 9.10411 3.99219 9.02833 3.99219ZM7.50462 3.42076H8.74262V2.18276H7.50405L7.50462 3.42076Z" fill="#8A8A8A"/>
<path d="M9.02833 7.72978H7.21833C7.14256 7.72978 7.06988 7.69967 7.0163 7.64609C6.96272 7.59251 6.93262 7.51984 6.93262 7.44406V5.63435C6.93262 5.55857 6.96272 5.4859 7.0163 5.43232C7.06988 5.37873 7.14256 5.34863 7.21833 5.34863H9.02833C9.10411 5.34863 9.17678 5.37873 9.23036 5.43232C9.28394 5.4859 9.31405 5.55857 9.31405 5.63435V7.44406C9.31405 7.51984 9.28394 7.59251 9.23036 7.64609C9.17678 7.69967 9.10411 7.72978 9.02833 7.72978ZM7.50462 7.15835H8.74262V5.92006H7.50405L7.50462 7.15835Z" fill="#8A8A8A"/>
<path d="M9.02833 11.4678H7.21833C7.14256 11.4678 7.06988 11.4377 7.0163 11.3841C6.96272 11.3305 6.93262 11.2578 6.93262 11.1821V9.37263C6.93262 9.29685 6.96272 9.22418 7.0163 9.1706C7.06988 9.11702 7.14256 9.08691 7.21833 9.08691H9.02833C9.10411 9.08691 9.17678 9.11702 9.23036 9.1706C9.28394 9.22418 9.31405 9.29685 9.31405 9.37263V11.1821C9.31405 11.2578 9.28394 11.3305 9.23036 11.3841C9.17678 11.4377 9.10411 11.4678 9.02833 11.4678ZM7.50462 10.8963H8.74262V9.65834H7.50405L7.50462 10.8963Z" fill="#8A8A8A"/>
<path d="M12.7813 3.99219H10.9713C10.8955 3.99219 10.8228 3.96208 10.7692 3.9085C10.7156 3.85492 10.6855 3.78225 10.6855 3.70647V1.89704C10.6855 1.82127 10.7156 1.74859 10.7692 1.69501C10.8228 1.64143 10.8955 1.61133 10.9713 1.61133H12.7807C12.8565 1.61133 12.9291 1.64143 12.9827 1.69501C13.0363 1.74859 13.0664 1.82127 13.0664 1.89704V3.70647C13.0664 3.78215 13.0364 3.85473 12.9829 3.9083C12.9295 3.96187 12.8569 3.99203 12.7813 3.99219ZM11.2575 3.42076H12.4955V2.18276H11.257L11.2575 3.42076Z" fill="#8A8A8A"/>
<path d="M12.7813 7.72978H10.9713C10.8955 7.72978 10.8228 7.69967 10.7692 7.64609C10.7156 7.59251 10.6855 7.51984 10.6855 7.44406V5.63435C10.6855 5.55857 10.7156 5.4859 10.7692 5.43232C10.8228 5.37873 10.8955 5.34863 10.9713 5.34863H12.7807C12.8565 5.34863 12.9291 5.37873 12.9827 5.43232C13.0363 5.4859 13.0664 5.55857 13.0664 5.63435V7.44406C13.0664 7.51974 13.0364 7.59232 12.9829 7.64589C12.9295 7.69946 12.8569 7.72962 12.7813 7.72978ZM11.2575 7.15835H12.4955V5.92006H11.257L11.2575 7.15835Z" fill="#8A8A8A"/>
<path d="M12.7813 11.4678H10.9713C10.8955 11.4678 10.8228 11.4377 10.7692 11.3841C10.7156 11.3305 10.6855 11.2578 10.6855 11.1821V9.37263C10.6855 9.29685 10.7156 9.22418 10.7692 9.1706C10.8228 9.11702 10.8955 9.08691 10.9713 9.08691H12.7807C12.8565 9.08691 12.9291 9.11702 12.9827 9.1706C13.0363 9.22418 13.0664 9.29685 13.0664 9.37263V11.1821C13.0664 11.2577 13.0364 11.3303 12.9829 11.3839C12.9295 11.4375 12.8569 11.4676 12.7813 11.4678ZM11.2575 10.8963H12.4955V9.65834H11.257L11.2575 10.8963Z" fill="#8A8A8A"/>
</svg>
