<svg width="20" height="20" viewBox="0 0 20 20" fill="none" xmlns="http://www.w3.org/2000/svg">
<path d="M11.9239 17.095C11.5423 17.1201 11.2206 17.1422 10.9385 17.1615C9.50248 17.2602 9.08899 17.2885 6.9986 17.2885C6.16022 17.2885 4.64547 18.8712 3.97725 19.6181L3.65127 19.2327M11.9239 17.095C12.9111 17.0291 13.1178 16.9811 13.6817 16.7474C16.6927 15.5053 19.9251 12.1978 19.9846 11.801C20.1233 10.8782 19.2976 10.4823 18.672 10.5285M11.9239 17.095L11.8906 16.5961M11.9239 17.095L11.891 16.596C11.8909 16.5961 11.8907 16.5961 11.8906 16.5961M18.672 10.5285C17.8966 10.5867 16.961 11.2271 15.9861 11.8944C15.4742 12.2448 14.9515 12.6026 14.4354 12.8875M18.672 10.5285L18.7095 11.0271C18.7094 11.0271 18.7093 11.0271 18.7091 11.0271M18.672 10.5285L18.7088 11.0271C18.7089 11.0271 18.709 11.0271 18.7091 11.0271M14.4354 12.8875C13.2332 13.5519 11.5928 13.4322 10.602 13.27C10.5497 13.2887 10.499 13.3072 10.4502 13.3253C10.2107 13.414 10.0533 13.4811 9.98404 13.5207L9.73595 13.0866V12.5866C9.8021 12.591 9.86847 12.6044 9.86986 12.6048L9.87126 12.6052L9.87197 12.6054L9.87297 12.6057L9.87743 12.6069L9.89784 12.6125C9.91654 12.6175 9.9453 12.625 9.98318 12.6344C10.059 12.6533 10.1711 12.6796 10.312 12.7084C10.3864 12.7236 10.4686 12.7394 10.5574 12.7552C10.7679 12.6811 10.9944 12.6043 11.2142 12.5299C11.7082 12.3625 12.1678 12.2068 12.3319 12.119M14.4354 12.8875L14.6772 13.3251C14.6772 13.3251 14.6771 13.3252 14.677 13.3252M14.4354 12.8875L14.677 13.3252M12.3319 12.119C14.2519 11.0892 14.0901 8.94001 13.1754 8.95812C12.4972 8.97126 11.9763 9.0914 11.2238 9.26496C10.6351 9.40072 9.90472 9.56917 8.84638 9.74469M12.3319 12.119L12.0956 11.6784C12.0957 11.6784 12.0958 11.6783 12.0959 11.6783M12.3319 12.119L12.0962 11.6781C12.0961 11.6782 12.096 11.6782 12.0959 11.6783M8.84638 9.74469C8.12579 9.86471 7.35335 9.92017 6.61844 9.97294C5.48968 10.054 4.44946 10.1287 3.82162 10.4212C2.35783 11.1019 0 15.6907 0 15.6907M8.84638 9.74469L8.92818 10.2379M8.84638 9.74469L8.92818 10.2379M0 15.6907L3.31775 19.6127C3.33136 19.5967 3.3473 19.5781 3.36541 19.557C3.43127 19.4805 3.52609 19.3719 3.64315 19.2418C3.64584 19.2388 3.64855 19.2358 3.65127 19.2327M0 15.6907L0.444712 15.9192L0.444749 15.9192L0.444985 15.9187L0.446094 15.9166L0.450829 15.9074L0.470104 15.8703C0.487215 15.8375 0.512703 15.789 0.545779 15.7267C0.561985 15.6962 0.580009 15.6624 0.599756 15.6255M0 15.6907L0.381733 15.3678L0.599756 15.6255M3.65127 19.2327L0.599756 15.6255M3.65127 19.2327L8.92818 10.2379M3.65127 19.2327C3.88424 18.9741 4.20555 18.6301 4.5629 18.2847C4.92223 17.9373 5.32903 17.5777 5.72639 17.3016C6.09818 17.0432 6.55692 16.7885 6.9986 16.7885C9.07208 16.7885 9.47382 16.761 10.9032 16.6628C11.1854 16.6434 11.5076 16.6213 11.8906 16.5961M3.65127 19.2327L8.92852 10.2379C10.0027 10.0597 10.7469 9.88808 11.3364 9.7521C11.4181 9.73326 11.4969 9.71509 11.5731 9.69769C12.197 9.5553 12.6347 9.46869 13.1851 9.45803L13.1853 9.45802C13.1962 9.45781 13.1985 9.45938 13.2021 9.46181L13.2024 9.46201C13.2097 9.46689 13.232 9.48501 13.2576 9.53343C13.3114 9.63515 13.3538 9.82449 13.3208 10.082C13.2565 10.5822 12.9162 11.2382 12.0959 11.6783M0.599756 15.6255C0.660627 15.5119 0.737876 15.3694 0.828778 15.2051C1.06983 14.7695 1.40559 14.1829 1.78554 13.5768C2.16661 12.9688 2.58639 12.3504 2.99517 11.8468C3.41933 11.3242 3.7795 10.9922 4.03247 10.8745L4.03275 10.8744C4.45444 10.678 5.15867 10.5867 6.07671 10.5144C6.25884 10.5001 6.44778 10.4865 6.64129 10.4727C7.37857 10.4198 8.18215 10.3622 8.92818 10.2379M11.8906 16.5961C12.3856 16.5631 12.6536 16.5361 12.8628 16.494C13.0605 16.4541 13.2178 16.3984 13.4902 16.2855L13.491 16.2852C14.9242 15.6939 16.4377 14.5963 17.6127 13.5792C18.1968 13.0736 18.6873 12.5965 19.032 12.226C19.205 12.04 19.3362 11.8864 19.4228 11.773C19.4573 11.7278 19.4813 11.6935 19.497 11.6692M19.497 11.6692C19.4954 11.6877 19.4931 11.7069 19.4901 11.7266C19.4965 11.6846 19.5079 11.6546 19.5137 11.6417M19.497 11.6692C19.5012 11.6627 19.5048 11.6569 19.5078 11.6518C19.5103 11.6477 19.5122 11.6443 19.5137 11.6417M19.497 11.6692C19.5181 11.4278 19.4276 11.2894 19.3073 11.1956C19.1517 11.0741 18.9166 11.0119 18.7091 11.0271M19.5137 11.6417C19.5164 11.6368 19.5174 11.6346 19.5172 11.6346C19.5171 11.6347 19.5157 11.6372 19.5137 11.6417ZM18.7091 11.0271C18.2651 11.0606 17.6835 11.3654 16.9468 11.849C16.7389 11.9854 16.5197 12.1354 16.2936 12.2901C15.7722 12.6469 15.2146 13.0284 14.677 13.3252M14.677 13.3252C13.627 13.9055 12.3305 13.9458 11.356 13.8662C10.8589 13.8256 10.4234 13.7518 10.1119 13.6882C9.95576 13.6563 9.8299 13.6268 9.74199 13.6049C9.71408 13.598 9.68996 13.5918 9.6699 13.5866M9.6699 13.5866H9.73595C9.6698 13.5822 9.60345 13.5687 9.6021 13.5683L9.60311 13.5686L9.61105 13.5708L9.63933 13.5785C9.64815 13.5809 9.65835 13.5836 9.6699 13.5866ZM9.6699 13.5866H7.85333L9.48786 12.6525C9.63869 12.5663 9.87064 12.4736 10.1027 12.3876C10.3457 12.2975 10.6286 12.2005 10.9027 12.1075C10.954 12.0901 11.0048 12.0729 11.0551 12.0558C11.277 11.9807 11.4878 11.9092 11.6686 11.8451C11.903 11.762 12.0448 11.7055 12.0959 11.6783" stroke="#3968F9"/>
<path d="M10.1765 3.69013H9.68147L9.67656 4.18517C9.66471 5.37955 8.88279 6.17293 8.11681 6.17293C7.34326 6.17293 6.55469 5.36571 6.55469 4.15813V2.515C6.55469 1.30725 7.34329 0.5 8.11681 0.5C8.88286 0.5 9.66471 1.29326 9.67656 2.48735L9.68148 2.98252L10.1767 2.98239L18.5629 2.98021V5.63619H18.0807V5.10893V4.60893H17.5807H16.3127H15.8127V5.10893V5.63619H15.332V4.19013V3.69013H14.832H10.1765ZM8.11676 0.97229C7.27973 0.97229 6.76195 1.76171 6.76195 2.515V4.15813C6.76195 4.91161 7.27982 5.70071 8.11676 5.70071C8.95123 5.70071 9.47145 4.91229 9.47145 4.15813V2.515C9.47145 1.76105 8.9514 0.97229 8.11676 0.97229Z" stroke="#3968F9"/>
</svg>
