<svg width="20" height="15" viewBox="0 0 20 15" fill="none" xmlns="http://www.w3.org/2000/svg">
<path d="M19.5 2.38634V3.24997H0.5V2.38634C0.5 1.3027 1.29558 0.5 2.1875 0.5H17.8125C18.7044 0.5 19.5 1.3027 19.5 2.38634Z" stroke="#8A8A8A"/>
<path d="M0.5 12.6137V5.61377H19.5V12.6137C19.5 13.6973 18.7044 14.5 17.8125 14.5H2.1875C1.29558 14.5 0.5 13.6973 0.5 12.6137ZM4.375 12.091C5.03636 12.091 5.5 11.52 5.5 10.9092V10.2274C5.5 9.61653 5.03636 9.04555 4.375 9.04555H3.75C3.08864 9.04555 2.625 9.61653 2.625 10.2274V10.9092C2.625 11.52 3.08864 12.091 3.75 12.091H4.375Z" stroke="#8A8A8A"/>
</svg>
