<svg width="20" height="20" viewBox="0 0 20 20" fill="none" xmlns="http://www.w3.org/2000/svg">
<path d="M0.5 16.4079L0.5 3.59215C0.5 1.88751 1.88751 0.5 3.59215 0.5H16.4079C18.1125 0.5 19.5 1.88751 19.5 3.59215V16.4079C19.5 18.1125 18.1125 19.5 16.4078 19.5H3.59215C1.88751 19.5 0.5 18.1125 0.5 16.4079ZM16.1079 13.3328C17.7782 12.4797 17.7752 10.0295 16.1079 9.17712V3.09805C16.1079 2.76643 15.9774 2.48164 15.7548 2.28523C15.5416 2.09719 15.2721 2.01428 15.0196 2.01431C14.767 2.01433 14.4976 2.0973 14.2844 2.28531C14.0618 2.4817 13.9314 2.76645 13.9314 3.09805L13.9314 9.17704C12.261 10.0301 12.264 12.4804 13.9314 13.3327V16.902C13.9314 17.2336 14.0618 17.5184 14.2844 17.7148C14.4976 17.9028 14.7671 17.9857 15.0197 17.9857C15.2722 17.9857 15.5416 17.9027 15.7548 17.7147C15.9774 17.5183 16.1079 17.2336 16.1079 16.902V13.3328ZM11.0882 8.31319C12.7586 7.4601 12.7556 5.00986 11.0882 4.15751V3.09805C11.0882 2.76643 10.9578 2.48164 10.7352 2.28523C10.522 2.09719 10.2525 2.01428 9.99996 2.0143C9.7474 2.01432 9.47798 2.09728 9.26483 2.28529C9.0422 2.48166 8.91176 2.76641 8.91176 3.09801V4.1574C7.24144 5.01049 7.24438 7.46075 8.91176 8.31308V16.902C8.91176 17.2336 9.04217 17.5183 9.26484 17.7148C9.47802 17.9028 9.74748 17.9857 10 17.9857C10.2526 17.9857 10.522 17.9027 10.7352 17.7147C10.9578 17.5183 11.0882 17.2336 11.0882 16.902V8.31319ZM6.06863 16.902V15.8426C7.73898 14.9895 7.73599 12.5393 6.06863 11.6869V3.09805C6.06863 2.76644 5.93823 2.48164 5.71556 2.28523C5.50237 2.09719 5.2329 2.01428 4.98034 2.01431C4.72778 2.01433 4.45835 2.0973 4.24521 2.28531C4.02259 2.4817 3.89215 2.76645 3.89215 3.09805L3.89215 11.6868C2.22182 12.5399 2.22478 14.9902 3.89215 15.8425L3.89215 16.902C3.89215 17.2336 4.02256 17.5184 4.24523 17.7148C4.45841 17.9028 4.72787 17.9857 4.98043 17.9857C5.23299 17.9857 5.50242 17.9027 5.71556 17.7147C5.93819 17.5183 6.06863 17.2336 6.06863 16.902Z" stroke="#8A8A8A"/>
<path d="M15.1849 11.2551V11.2551C15.1849 11.3384 15.1585 11.3649 15.1458 11.3761C15.1237 11.3956 15.0793 11.4165 15.0181 11.4165C14.9569 11.4165 14.9127 11.3957 14.8906 11.3762C14.878 11.3651 14.8516 11.3386 14.8516 11.2551C14.8516 11.1719 14.8779 11.1454 14.8906 11.1342C14.9128 11.1146 14.9571 11.0938 15.0183 11.0938C15.0795 11.0938 15.1238 11.1146 15.1459 11.1341C15.1585 11.1452 15.1849 11.1716 15.1849 11.2551Z" stroke="#8A8A8A"/>
<path d="M5.14582 13.7649V13.7649C5.14582 13.8482 5.11944 13.8747 5.10677 13.8859C5.08461 13.9054 5.04027 13.9263 4.97907 13.9263C4.91787 13.9263 4.87361 13.9054 4.85152 13.886C4.83893 13.8749 4.8125 13.8484 4.8125 13.7649C4.8125 13.6816 4.83887 13.6551 4.85154 13.644C4.87371 13.6244 4.91805 13.6036 4.97926 13.6035C5.04047 13.6035 5.08473 13.6244 5.10682 13.6438C5.1194 13.6549 5.14582 13.6814 5.14582 13.7649Z" stroke="#8A8A8A"/>
<path d="M10.1693 6.23557V6.2356C10.1693 6.31888 10.1429 6.34538 10.1302 6.35656C10.108 6.37611 10.0637 6.39696 10.0025 6.39697C9.94131 6.39698 9.89705 6.37615 9.87496 6.35667C9.86237 6.34557 9.83594 6.31908 9.83594 6.2356C9.83594 6.15231 9.86231 6.12581 9.87499 6.11464C9.89715 6.09509 9.9415 6.07423 10.0027 6.07422C10.0639 6.07421 10.1082 6.09504 10.1302 6.11452C10.1428 6.12562 10.1693 6.1521 10.1693 6.23557Z" stroke="#8A8A8A"/>
</svg>
