<svg width="20" height="20" viewBox="0 0 20 20" fill="none" xmlns="http://www.w3.org/2000/svg">
<path d="M18.9995 10.6L18.9995 10.5997C19.0126 10.399 19.1953 10.2401 19.4003 10.2504C19.607 10.2653 19.763 10.4447 19.7491 10.6497L19.7491 10.6501C19.4093 15.7517 15.1301 19.75 10.008 19.75C4.62732 19.75 0.25 15.3759 0.25 10C0.25 4.62409 4.62732 0.25 10.008 0.25C12.4272 0.25 14.6917 1.13449 16.4504 2.70007L16.6266 2.85685L16.7934 2.69018L17.4571 2.02703C17.4571 2.02699 17.4571 2.02695 17.4572 2.02691C17.6945 1.79046 18.0981 1.96004 18.0981 2.29167V4.375C18.0981 4.58174 17.93 4.75 17.7226 4.75H15.6376C15.3022 4.75 15.1366 4.34464 15.3719 4.11056L15.3724 4.11004L15.9086 3.57338L16.0975 3.38436L15.8964 3.20846C14.2826 1.79741 12.2135 1 10.008 1C5.04128 1 1.001 5.03674 1.001 10C1.001 14.9633 5.04128 19 10.008 19C14.7355 19 18.6855 15.3108 18.9995 10.6Z" stroke="#8A8A8A" stroke-width="0.5"/>
<path d="M10.6517 12.7525C10.6517 12.7525 10.6516 12.7526 10.6516 12.7526C10.2718 13.2371 9.56134 13.3073 9.09386 12.9065L10.6517 12.7525ZM10.6517 12.7525L12.9448 9.83641L10.6517 12.7525ZM14.507 6.7583L14.5075 6.75847C14.66 6.80994 14.7619 6.95198 14.7619 7.11326V10.4616C14.7619 12.4036 13.6785 13.8589 12.5406 14.8524C11.4075 15.8417 10.2491 16.3467 10.1547 16.3872C10.0602 16.4267 9.95527 16.4267 9.86075 16.3871C9.77074 16.3488 8.61033 15.8439 7.4753 14.8528C6.3374 13.8592 5.25391 12.4036 5.25391 10.4616V7.11326C5.25391 6.95198 5.35582 6.80994 5.50834 6.75847L5.50887 6.75829L9.88739 5.26996L9.88865 5.26953C9.96581 5.24284 10.05 5.24284 10.1272 5.26953L10.1272 5.26953L10.1285 5.26996L14.507 6.7583ZM7.63462 11.6567L9.09372 12.9063L7.79698 11.4666L7.63436 11.6565L7.63452 11.6566C7.63455 11.6566 7.63459 11.6567 7.63462 11.6567ZM9.04477 10.0118C8.59149 9.62289 7.90673 9.6748 7.51735 10.1286L12.945 9.83613C13.3154 9.36616 13.2336 8.68488 12.7622 8.31689C12.2904 7.94516 11.6095 8.02895 11.2401 8.49873L9.64561 10.5263L9.04483 10.0119L8.88202 10.2016L9.04462 10.0117L9.04477 10.0118Z" stroke="#8A8A8A" stroke-width="0.5"/>
</svg>
