<svg width="15" height="20" viewBox="0 0 15 20" fill="none" xmlns="http://www.w3.org/2000/svg">
<path d="M10.8608 1.17188V0.671875H10.3608H4.63924H4.13924V1.17188V2.83141V3.33141H4.63924H10.3608H10.8608V2.83141V1.17188ZM13.7688 19.3281H14.2688V18.8281V1.17188V0.671875H13.7688H11.592H11.092V1.17188V3.41734C11.092 3.43286 11.0862 3.45116 11.0669 3.46949C11.0472 3.48823 11.0163 3.50328 10.9764 3.50328H4.02364C3.98369 3.50328 3.95275 3.48823 3.93306 3.46949C3.9138 3.45116 3.90803 3.43286 3.90803 3.41734V1.17188V0.671875H3.40803H1.23121H0.73121V1.17188V18.8281V19.3281H1.23121H13.7688ZM0.615605 0.5H14.3844C14.4243 0.5 14.4553 0.515054 14.475 0.533794C14.4942 0.552124 14.5 0.570417 14.5 0.585938V19.4141C14.5 19.4296 14.4942 19.4479 14.475 19.4662C14.4553 19.4849 14.4243 19.5 14.3844 19.5H0.615605C0.57566 19.5 0.544718 19.4849 0.52503 19.4662C0.505771 19.4479 0.5 19.4296 0.5 19.4141V0.585938C0.5 0.570417 0.505771 0.552124 0.525029 0.533794C0.544718 0.515054 0.57566 0.5 0.615605 0.5Z" stroke="#8A8A8A"/>
<path d="M10.4098 10.1175L11.3157 9.25537H10.0651H9.1924C9.15189 9.25307 9.12685 9.24514 9.11304 9.23912C9.09859 9.23282 9.09103 9.22633 9.08671 9.22173C9.0778 9.21222 9.06876 9.19461 9.06876 9.16942C9.06875 9.14423 9.07777 9.12668 9.08663 9.11722C9.09093 9.11263 9.09849 9.10613 9.11298 9.09981C9.12682 9.09377 9.15191 9.08582 9.1925 9.0835H11.5513C11.5913 9.0835 11.6222 9.09856 11.6419 9.11727C11.6611 9.13557 11.6669 9.15385 11.6669 9.16941V9.16947V11.4124C11.6649 11.4411 11.6588 11.4567 11.6555 11.4636C11.6518 11.4712 11.6476 11.4765 11.6418 11.4814C11.6284 11.4928 11.5973 11.5082 11.5513 11.5083C11.5052 11.5083 11.4742 11.4928 11.4608 11.4814C11.4551 11.4766 11.4508 11.4713 11.4471 11.4636C11.4438 11.4567 11.4377 11.4411 11.4357 11.4123V10.584V9.41782L10.591 10.2218L7.24255 13.4089L7.24249 13.4088L7.2355 13.4157C7.22746 13.4237 7.20001 13.4412 7.15198 13.4412C7.10395 13.4412 7.0765 13.4237 7.06845 13.4157L7.06852 13.4156L7.0614 13.4089L5.16788 11.6066L4.82317 11.2785L4.47845 11.6066L3.54981 12.4904C3.49779 12.5342 3.46287 12.536 3.44582 12.5351C3.41988 12.5337 3.38831 12.5213 3.36225 12.4965C3.33595 12.4715 3.33229 12.4508 3.33206 12.4471L3.33206 12.447C3.33198 12.4458 3.33179 12.4426 3.33458 12.4355C3.33731 12.4285 3.3455 12.4112 3.36881 12.386L4.73258 11.088C4.73259 11.088 4.73259 11.088 4.7326 11.088C4.75374 11.0679 4.78529 11.0542 4.82322 11.0542C4.86116 11.0542 4.89266 11.0679 4.91373 11.0879L4.91376 11.088L6.80728 12.8902L7.152 13.2183L7.49671 12.8902L10.4098 10.1175Z" stroke="#8A8A8A"/>
</svg>
