<svg width="20" height="20" viewBox="0 0 20 20" fill="none" xmlns="http://www.w3.org/2000/svg">
<path d="M19.9515 15.3794C19.9192 14.9897 19.8537 14.5645 19.7573 14.1156C19.66 13.6634 19.5347 13.2358 19.3848 12.845C19.2297 12.4411 19.0191 12.0423 18.7585 11.66C18.4884 11.2633 18.1709 10.9178 17.8146 10.6336C17.4421 10.3362 16.9859 10.0971 16.4585 9.92267C15.9328 9.74918 15.3503 9.66129 14.7272 9.66129C14.4825 9.66129 14.2458 9.74506 13.7888 9.99332C13.5075 10.1464 13.1785 10.3234 12.8112 10.5191C12.4972 10.6861 12.0718 10.8425 11.5464 10.9841C11.0337 11.1225 10.5132 11.1927 9.99927 11.1927C9.48571 11.1927 8.9652 11.1225 8.45218 10.9841C7.92728 10.8426 7.50169 10.6862 7.18821 10.5193C6.82444 10.3253 6.49524 10.1483 6.20974 9.99316C5.75306 9.7449 5.5164 9.66113 5.27169 9.66113C4.64839 9.66113 4.06606 9.74918 3.54061 9.92282C3.01352 10.0969 2.5572 10.336 2.18428 10.6337C1.82801 10.9182 1.51051 11.2635 1.24056 11.66C0.980302 12.0423 0.769611 12.441 0.614518 12.8452C0.464729 13.236 0.339448 13.6634 0.242149 14.1156C0.145582 14.5639 0.0802897 14.9892 0.0479178 15.3798C0.0160945 15.7617 0 16.1592 0 16.5609C0 17.6049 0.397791 18.45 1.18222 19.0734C1.95695 19.6884 2.98188 20.0003 4.22865 20.0003H15.7713C17.0178 20.0003 18.0427 19.6884 18.8176 19.0734C19.6022 18.4505 20 17.605 20 16.5607C19.9998 16.1577 19.9835 15.7602 19.9515 15.3794ZM17.849 18.2242C17.3371 18.6307 16.6575 18.8283 15.7712 18.8283H4.22865C3.34217 18.8283 2.66255 18.6307 2.15081 18.2244C1.64877 17.8257 1.4048 17.2814 1.4048 16.5609C1.4048 16.1861 1.41961 15.8161 1.44924 15.4608C1.47814 15.1123 1.53721 14.7295 1.62481 14.3227C1.71132 13.9209 1.82142 13.5439 1.95237 13.2025C2.07802 12.8752 2.24939 12.5511 2.46191 12.239C2.66474 11.9414 2.89811 11.6861 3.15562 11.4804C3.39649 11.288 3.70009 11.1306 4.05783 11.0125C4.38868 10.9032 4.7605 10.8434 5.16415 10.8344C5.21334 10.8562 5.30095 10.8979 5.44287 10.9751C5.73166 11.1321 6.06452 11.3112 6.4325 11.5073C6.8473 11.7279 7.38171 11.9272 8.02019 12.0992C8.67293 12.2753 9.33866 12.3647 9.99945 12.3647C10.6602 12.3647 11.3262 12.2753 11.9785 12.0993C12.6176 11.9271 13.1518 11.7279 13.5671 11.507C13.9437 11.3062 14.2672 11.1322 14.556 10.9751C14.698 10.898 14.7856 10.8562 14.8348 10.8344C15.2386 10.8434 15.6104 10.9032 15.9414 11.0125C16.299 11.1306 16.6026 11.2882 16.8435 11.4804C17.101 11.686 17.3343 11.9413 17.5372 12.2391C17.7499 12.5511 17.9214 12.8754 18.0469 13.2024C18.178 13.5442 18.2883 13.9211 18.3746 14.3225C18.4621 14.7301 18.5213 15.1131 18.5502 15.461V15.4613C18.58 15.8152 18.595 16.185 18.5952 16.5609C18.595 17.2815 18.351 17.8257 17.849 18.2242Z" fill="#8A8A8A"/>
<path d="M9.84862 9.63409C11.435 9.63409 12.8085 9.15939 13.9311 8.22281C15.0534 7.28638 15.6225 6.14059 15.6225 4.81689C15.6225 3.49365 15.0535 2.34772 13.931 1.41098C12.8084 0.474701 11.4348 0 9.84862 0C8.26203 0 6.88869 0.474701 5.76628 1.41113C4.64387 2.34756 4.07471 3.4935 4.07471 4.81689C4.07471 6.14059 4.64387 7.28653 5.76628 8.22296C6.88905 9.15924 8.26257 9.63409 9.84862 9.63409ZM6.75975 2.23984C7.62099 1.5213 8.63128 1.17203 9.84862 1.17203C11.0658 1.17203 12.0762 1.5213 12.9377 2.23984C13.7989 2.95853 14.2177 3.80157 14.2177 4.81689C14.2177 5.83252 13.7989 6.67542 12.9377 7.3941C12.0762 8.11279 11.0658 8.46207 9.84862 8.46207C8.63165 8.46207 7.62135 8.11264 6.75975 7.3941C5.89833 6.67557 5.4795 5.83252 5.4795 4.81689C5.4795 3.80157 5.89833 2.95853 6.75975 2.23984Z" fill="#8A8A8A"/>
</svg>
