<svg width="20" height="20" viewBox="0 0 20 20" fill="none" xmlns="http://www.w3.org/2000/svg">
<path d="M12.0113 8.0622C12.565 7.27094 12.9234 6.1512 12.9234 4.8907C12.9234 3.54688 12.7932 2.43882 12.3696 1.67492C12.165 1.30585 11.8936 1.02109 11.5294 0.824164C11.1613 0.625158 10.6688 0.5 10.0008 0.5C9.33273 0.5 8.84018 0.625159 8.47211 0.824165C8.1079 1.02109 7.83654 1.30585 7.63191 1.67491C7.20836 2.43881 7.07813 3.54686 7.07812 4.89069L12.0113 8.0622ZM12.0113 8.0622C11.4564 8.85504 10.7379 9.28134 10.0008 9.28134M12.0113 8.0622L10.0008 9.28134M10.0008 9.28134C9.26368 9.28134 8.54516 8.85505 7.9903 8.0622M10.0008 9.28134L7.9903 8.0622M7.9903 8.0622C7.43655 7.27095 7.07815 6.15121 7.07812 4.8907L7.9903 8.0622Z" stroke="#8A8A8A"/>
<path d="M16.4567 17.0515C16.456 16.995 16.4552 16.939 16.4543 16.8835C16.3042 16.8859 16.1889 16.9573 16.1259 17.015C16.1108 17.0289 16.0974 17.0428 16.0856 17.0565L16.4567 17.0515ZM16.4567 17.0515C16.4593 17.2438 16.4611 17.3344 16.4624 17.3678L15.9645 17.3575C15.9645 17.3569 15.9647 17.3517 15.9653 17.3442C15.9655 17.3408 15.9662 17.3325 15.9675 17.3218L15.9675 17.3217C15.9678 17.319 15.972 17.2812 15.9858 17.2364C15.9901 17.2224 15.9986 17.1968 16.0133 17.1664C16.0221 17.1482 16.0441 17.1045 16.0856 17.0565L16.4567 17.0515ZM12.0543 10.7085C13.8361 11.1161 14.7176 11.6182 15.2155 12.4214C15.7687 13.3137 15.9248 14.6806 15.9568 17.0582C15.9588 17.2087 15.9604 17.2996 15.9617 17.3501C15.9621 17.3692 15.9628 17.3929 15.964 17.4122L15.9639 17.6146C15.938 17.655 15.8991 17.7104 15.844 17.7769C15.7036 17.9463 15.4545 18.1917 15.039 18.4446C14.2088 18.9499 12.6886 19.5002 9.99971 19.5002C7.31078 19.5002 5.79061 18.9499 4.96052 18.4446C4.54503 18.1917 4.29591 17.9463 4.15548 17.7769C4.10043 17.7104 4.06156 17.6551 4.03565 17.6146C4.03558 17.4708 4.03542 17.3697 4.03528 17.3001C4.0358 17.2934 4.03614 17.2878 4.03635 17.284C4.03699 17.2727 4.03749 17.26 4.03793 17.2472C4.03966 17.1958 4.04188 17.0931 4.04483 16.9065C4.0816 14.5936 4.24742 13.2632 4.80167 12.393C5.30237 11.6068 6.18348 11.1115 7.94508 10.7085C8.03257 10.7943 8.14573 10.8923 8.28621 10.9896C8.66315 11.2505 9.22933 11.5002 9.99966 11.5002C10.77 11.5002 11.3362 11.2505 11.7131 10.9896C11.8536 10.8923 11.9668 10.7943 12.0543 10.7085ZM3.54489 16.8986C3.54162 17.1054 3.53932 17.2039 3.53774 17.2433L4.03498 17.2365C4.03491 17.2348 4.03478 17.2322 4.03457 17.2289C4.0344 17.2264 4.03404 17.2212 4.03339 17.2146C4.03296 17.2102 4.03141 17.1945 4.02772 17.1744C4.02605 17.1653 4.02179 17.1432 4.01321 17.1158L4.01315 17.1156C4.01159 17.11 3.98284 17.0065 3.89262 16.9147C3.88922 16.9113 3.88556 16.9077 3.88166 16.904C3.88165 16.9039 3.88164 16.9039 3.88163 16.9039C3.82372 16.8488 3.71015 16.7686 3.54717 16.7654C3.54636 16.8095 3.5456 16.8539 3.54489 16.8986Z" stroke="#8A8A8A"/>
<path d="M17.0285 4.9365C17.0285 5.94338 16.7421 6.83348 16.3047 7.4585C15.8662 8.08511 15.3084 8.40859 14.7488 8.40859C14.5397 8.40859 14.3334 8.36391 14.1336 8.27601C14.5921 7.26046 14.8342 6.09522 14.8342 4.89111C14.8342 3.90357 14.7821 2.6363 14.3949 1.48062C14.5049 1.46999 14.6227 1.46436 14.7488 1.46436C15.2797 1.46436 15.6635 1.56381 15.9456 1.71633C16.2239 1.86677 16.432 2.08427 16.5905 2.37022C16.9219 2.96789 17.0285 3.84631 17.0285 4.9365Z" stroke="#8A8A8A"/>
<path d="M19.9942 14.8127C19.9932 14.7348 19.992 14.658 19.9906 14.5823C19.8918 14.5844 19.7982 14.6157 19.7224 14.6663C19.6441 14.7185 19.5982 14.7811 19.5751 14.8182L19.9942 14.8127ZM19.9942 14.8127C19.9962 14.9662 19.9977 15.0399 19.9987 15.068L19.5005 15.0577L19.5012 15.0457C19.5014 15.0425 19.5019 15.0357 19.5029 15.027L19.5029 15.0265C19.5034 15.0216 19.5061 14.9966 19.5135 14.9659L19.5137 14.9649C19.5163 14.9541 19.5288 14.9012 19.5614 14.8417C19.5645 14.8361 19.5689 14.8281 19.575 14.8183L19.9942 14.8127ZM16.4469 9.76391C17.8537 10.0913 18.5267 10.4893 18.9063 11.1017C19.3396 11.8007 19.4682 12.8836 19.4943 14.8193L16.4469 9.76391ZM16.4469 9.76391C16.3786 9.82772 16.2949 9.89739 16.195 9.96653C16.1032 10.0301 15.9983 10.0927 15.8801 10.1497C16.2198 10.4455 16.5297 10.7979 16.7919 11.2209L16.3669 11.4844L16.7919 11.2209C17.5809 12.4936 17.7948 14.1288 17.8546 16.2879C18.5158 16.0679 18.929 15.8009 19.1785 15.5879C19.3383 15.4515 19.4348 15.3341 19.488 15.2591C19.4922 15.2531 19.4962 15.2473 19.4999 15.2418C19.5 15.1886 19.5 15.1443 19.5001 15.1075C19.499 15.0901 19.4986 15.071 19.4982 15.0583C19.4972 15.0168 19.4959 14.9424 19.4943 14.8194L16.4469 9.76391Z" stroke="#8A8A8A"/>
<path d="M5.60626 1.48062C5.21913 2.63625 5.16699 3.90352 5.16699 4.89111C5.16699 6.0952 5.40908 7.2604 5.86761 8.27594C5.66772 8.36385 5.46143 8.40853 5.25234 8.40853C4.69277 8.40853 4.13498 8.08506 3.69647 7.45845C3.25907 6.83344 2.97266 5.94334 2.97266 4.9365C2.97266 3.8463 3.07924 2.96788 3.4106 2.37021C3.56914 2.08426 3.77727 1.86676 4.05549 1.71633C4.33757 1.56381 4.72138 1.46436 5.25234 1.46436C5.37841 1.46436 5.49619 1.46999 5.60626 1.48062Z" stroke="#8A8A8A"/>
<path d="M3.80504 9.96653C3.89686 10.0301 4.00174 10.0927 4.11994 10.1497L3.2083 11.2208C2.41924 12.4936 2.20538 14.1288 2.14547 16.2878C1.48435 16.0678 1.07113 15.8008 0.821652 15.5879C0.661848 15.4515 0.565338 15.334 0.512179 15.259C0.507885 15.2529 0.503866 15.2472 0.500114 15.2416L0.500022 15.1082C0.501061 15.0907 0.501552 15.0712 0.501879 15.0581C0.502911 15.0169 0.504204 14.9425 0.505878 14.8195L0.505879 14.8194C0.531922 12.8836 0.660483 11.8007 1.09382 11.1016C1.47341 10.4893 2.14642 10.0913 3.55314 9.76391C3.62148 9.82772 3.70517 9.8974 3.80504 9.96653ZM0.499633 15.0577L0.00139754 15.0676C0.00240285 15.0392 0.00384611 14.9655 0.00592441 14.8127C0.00697332 14.7347 0.00817744 14.6579 0.00955756 14.5822C0.119825 14.5845 0.220437 14.6237 0.29566 14.6788C0.361704 14.7271 0.402568 14.782 0.425127 14.8183C0.425139 14.8183 0.425152 14.8184 0.425165 14.8184C0.433815 14.8323 0.439769 14.8435 0.443416 14.8504C0.473315 14.9076 0.484839 14.9578 0.487251 14.9683L0.487463 14.9692C0.494327 14.9989 0.496864 15.0229 0.497367 15.0276L0.497416 15.0281C0.498321 15.0365 0.498797 15.0431 0.499006 15.0461L0.499633 15.0577Z" stroke="#8A8A8A"/>
</svg>
