<svg width="20" height="15" viewBox="0 0 20 15" fill="none" xmlns="http://www.w3.org/2000/svg">
<path d="M17.1896 4.94113L17.071 4.60957C16.8355 3.95147 16.5691 3.31361 16.2809 2.78638C15.9859 2.24667 15.697 1.87734 15.4384 1.69672C14.8994 1.32096 14.1021 1.01784 13.1384 0.810446C12.1817 0.604559 11.0941 0.5 10.0005 0.5C8.90678 0.5 7.81918 0.604559 6.86251 0.810446C5.89895 1.01782 5.10169 1.32089 4.5627 1.69658C4.30407 1.87725 4.01558 2.24686 3.72062 2.78718C3.43255 3.31486 3.16599 3.95288 2.92904 4.6106L2.80996 4.94113H2.45864H0.516169C0.515241 4.94193 0.513915 4.94324 0.512346 4.94529L0.51094 4.94713L0.510936 4.94712C0.503561 4.95667 0.497144 4.9758 0.50129 4.99671L0.501625 4.9984L0.789922 6.47879C0.789925 6.4788 0.789927 6.47881 0.789929 6.47882C0.793105 6.49509 0.800129 6.50334 0.803737 6.50645C0.803936 6.50662 0.804123 6.50677 0.804296 6.50691H1.3771H2.43205L1.76412 7.32348C1.28826 7.90523 1.05018 8.64743 1.047 9.40372L17.1896 4.94113ZM17.1896 4.94113H17.5418M17.1896 4.94113H17.5418M17.5418 4.94113H19.4835C19.4847 4.94204 19.4866 4.94365 19.4888 4.94635C19.4961 4.95641 19.5029 4.97593 19.4988 4.99996C19.4987 5.00033 19.4986 5.00071 19.4986 5.00108L19.2105 6.47699L19.2101 6.47928C19.207 6.49515 19.2003 6.50277 19.1973 6.50544C19.1971 6.50558 19.1969 6.50571 19.1968 6.50583H18.5849H17.5049L18.2036 7.32933C18.7069 7.92246 18.956 8.6912 18.9534 9.4732C18.9493 10.3406 18.6388 11.1885 18.0124 11.7965L17.8606 11.9438V12.1553V14.186C17.8606 14.3861 17.7126 14.5 17.5925 14.5H15.7971C15.6763 14.5 15.5289 14.3866 15.5289 14.186V13.3535V12.8535H15.0289H4.97095H4.47095V13.3535V14.186C4.47095 14.3866 4.32354 14.5 4.20282 14.5H2.40743C2.2867 14.5 2.13929 14.3866 2.13929 14.186V12.1146V11.9051M17.5418 4.94113L2.13929 11.9051M2.13929 11.9051L1.99 11.7582M2.13929 11.9051L1.99 11.7582M1.99 11.7582C1.97695 11.7454 1.96525 11.7351 1.95635 11.7276C1.95464 11.7261 1.95299 11.7247 1.95141 11.7234M1.99 11.7582L1.95141 11.7234M1.95141 11.7234C1.37321 11.1509 1.04394 10.3341 1.047 9.40383L1.95141 11.7234ZM4.83392 2.23587L4.83381 2.23594C4.66311 2.35508 4.51989 2.53212 4.40139 2.70811C4.27746 2.89217 4.15508 3.11402 4.03599 3.3587C3.79753 3.84858 3.55544 4.46478 3.32771 5.13084L3.10146 5.79259H3.80082H16.1991H16.8988L16.6721 5.13057C16.4439 4.46435 16.2015 3.84793 15.963 3.35801C15.8438 3.11333 15.7214 2.89145 15.5974 2.70744C15.479 2.53169 15.3356 2.35464 15.1646 2.23566C14.5922 1.8363 13.7819 1.56262 12.9011 1.38615C12.0098 1.20758 11.0016 1.11989 9.99981 1.11989C8.99806 1.11989 7.98976 1.20758 7.09835 1.38615C6.21723 1.56266 5.40658 1.83641 4.83392 2.23587ZM4.33391 7.50489C3.19696 7.50489 2.32273 8.47247 2.32273 9.60579C2.32273 10.7389 3.19675 11.7072 4.33391 11.7072C5.47231 11.7072 6.34509 10.7387 6.34509 9.60579C6.34509 8.4727 5.4721 7.50489 4.33391 7.50489ZM13.6748 9.60579C13.6748 10.7389 14.5488 11.7072 15.6859 11.7072C16.8231 11.7072 17.6971 10.7389 17.6971 9.60579C17.6971 8.4727 16.8241 7.50489 15.6859 7.50489C14.549 7.50489 13.6748 8.47247 13.6748 9.60579Z" stroke="#8A8A8A"/>
</svg>
